<?xml version="1.0" encoding="UTF-8"?>
<!-- Do not edit this file with editors other than draw.io -->
<!DOCTYPE svg PUBLIC "-//W3C//DTD SVG 1.1//EN" "http://www.w3.org/Graphics/SVG/1.1/DTD/svg11.dtd">
<svg xmlns="http://www.w3.org/2000/svg" style="background: #ffffff; background-color: light-dark(#ffffff, var(--ge-dark-color, #121212)); color-scheme: light dark;" xmlns:xlink="http://www.w3.org/1999/xlink" version="1.1" width="148px" height="146px" viewBox="-0.5 -0.5 148 146" content="&lt;mxfile host=&quot;app.diagrams.net&quot; agent=&quot;Mozilla/5.0 (Macintosh; Intel Mac OS X 10_15_7) AppleWebKit/537.36 (KHTML, like Gecko) Chrome/137.0.0.0 Safari/537.36 Edg/137.0.0.0&quot; version=&quot;27.1.5&quot; pages=&quot;2&quot; scale=&quot;1&quot; border=&quot;0&quot;&gt;&#10;  &lt;diagram name=&quot;integration-img&quot; id=&quot;hS2gCD0KR1tBGuV8GCq8&quot;&gt;&#10;    &lt;mxGraphModel dx=&quot;631&quot; dy=&quot;352&quot; grid=&quot;1&quot; gridSize=&quot;10&quot; guides=&quot;1&quot; tooltips=&quot;1&quot; connect=&quot;1&quot; arrows=&quot;1&quot; fold=&quot;1&quot; page=&quot;1&quot; pageScale=&quot;1&quot; pageWidth=&quot;827&quot; pageHeight=&quot;1169&quot; math=&quot;0&quot; shadow=&quot;0&quot;&gt;&#10;      &lt;root&gt;&#10;        &lt;mxCell id=&quot;0&quot; /&gt;&#10;        &lt;mxCell id=&quot;1&quot; parent=&quot;0&quot; /&gt;&#10;        &lt;mxCell id=&quot;QHhDWEK_4P3ibPSqeD0T-1&quot; value=&quot;&quot; style=&quot;shape=document;whiteSpace=wrap;html=1;boundedLbl=1;strokeColor=none;fillColor=#dae8fc;opacity=20;&quot; vertex=&quot;1&quot; parent=&quot;1&quot;&gt;&#10;          &lt;mxGeometry x=&quot;340&quot; y=&quot;376&quot; width=&quot;120&quot; height=&quot;88&quot; as=&quot;geometry&quot; /&gt;&#10;        &lt;/mxCell&gt;&#10;        &lt;mxCell id=&quot;-gwXeNUgbdgCLsNn1iwz-9&quot; value=&quot;&quot; style=&quot;sketch=0;outlineConnect=0;fontColor=#232F3E;gradientColor=none;fillColor=#60B2E5;strokeColor=none;dashed=0;verticalLabelPosition=bottom;verticalAlign=top;align=center;html=1;fontSize=12;fontStyle=0;aspect=fixed;pointerEvents=1;shape=mxgraph.aws4.gear;&quot; vertex=&quot;1&quot; parent=&quot;1&quot;&gt;&#10;          &lt;mxGeometry x=&quot;350&quot; y=&quot;420&quot; width=&quot;30&quot; height=&quot;30&quot; as=&quot;geometry&quot; /&gt;&#10;        &lt;/mxCell&gt;&#10;        &lt;mxCell id=&quot;-gwXeNUgbdgCLsNn1iwz-10&quot; value=&quot;&quot; style=&quot;sketch=0;outlineConnect=0;fontColor=#232F3E;gradientColor=none;fillColor=#71A2B6;strokeColor=none;dashed=0;verticalLabelPosition=bottom;verticalAlign=top;align=center;html=1;fontSize=12;fontStyle=0;aspect=fixed;pointerEvents=1;shape=mxgraph.aws4.gear;rotation=15;&quot; vertex=&quot;1&quot; parent=&quot;1&quot;&gt;&#10;          &lt;mxGeometry x=&quot;365&quot; y=&quot;380&quot; width=&quot;50&quot; height=&quot;50&quot; as=&quot;geometry&quot; /&gt;&#10;        &lt;/mxCell&gt;&#10;        &lt;mxCell id=&quot;-gwXeNUgbdgCLsNn1iwz-11&quot; value=&quot;&quot; style=&quot;sketch=0;outlineConnect=0;fontColor=#232F3E;gradientColor=none;fillColor=#53F4FF;strokeColor=none;dashed=0;verticalLabelPosition=bottom;verticalAlign=top;align=center;html=1;fontSize=12;fontStyle=0;aspect=fixed;pointerEvents=1;shape=mxgraph.aws4.gear;rotation=60;&quot; vertex=&quot;1&quot; parent=&quot;1&quot;&gt;&#10;          &lt;mxGeometry x=&quot;408&quot; y=&quot;408&quot; width=&quot;40&quot; height=&quot;40&quot; as=&quot;geometry&quot; /&gt;&#10;        &lt;/mxCell&gt;&#10;      &lt;/root&gt;&#10;    &lt;/mxGraphModel&gt;&#10;  &lt;/diagram&gt;&#10;  &lt;diagram id=&quot;IOI7_tfFBnW1Y3QOMzzJ&quot; name=&quot;single-tool&quot;&gt;&#10;    &lt;mxGraphModel dx=&quot;1206&quot; dy=&quot;672&quot; grid=&quot;1&quot; gridSize=&quot;10&quot; guides=&quot;1&quot; tooltips=&quot;1&quot; connect=&quot;1&quot; arrows=&quot;1&quot; fold=&quot;1&quot; page=&quot;1&quot; pageScale=&quot;1&quot; pageWidth=&quot;827&quot; pageHeight=&quot;1169&quot; math=&quot;0&quot; shadow=&quot;0&quot;&gt;&#10;      &lt;root&gt;&#10;        &lt;mxCell id=&quot;0&quot; /&gt;&#10;        &lt;mxCell id=&quot;1&quot; parent=&quot;0&quot; /&gt;&#10;        &lt;mxCell id=&quot;iX4E62Lxc4KdDLDYWgln-1&quot; value=&quot;&quot; style=&quot;html=1;whiteSpace=wrap;shape=isoCube2;backgroundOutline=1;isoAngle=15;strokeColor=#7C8483;strokeWidth=3;sketch=1;curveFitting=1;jiggle=2;&quot; vertex=&quot;1&quot; parent=&quot;1&quot;&gt;&#10;          &lt;mxGeometry x=&quot;293&quot; y=&quot;379&quot; width=&quot;90&quot; height=&quot;100&quot; as=&quot;geometry&quot; /&gt;&#10;        &lt;/mxCell&gt;&#10;        &lt;mxCell id=&quot;iX4E62Lxc4KdDLDYWgln-2&quot; value=&quot;&quot; style=&quot;shape=flexArrow;endArrow=classic;html=1;rounded=0;fillColor=#F9D9E1;strokeColor=#982649;shadow=0;sketch=1;curveFitting=1;jiggle=2;&quot; edge=&quot;1&quot; parent=&quot;1&quot;&gt;&#10;          &lt;mxGeometry width=&quot;50&quot; height=&quot;50&quot; relative=&quot;1&quot; as=&quot;geometry&quot;&gt;&#10;            &lt;mxPoint x=&quot;270&quot; y=&quot;480&quot; as=&quot;sourcePoint&quot; /&gt;&#10;            &lt;mxPoint x=&quot;320&quot; y=&quot;430&quot; as=&quot;targetPoint&quot; /&gt;&#10;          &lt;/mxGeometry&gt;&#10;        &lt;/mxCell&gt;&#10;        &lt;mxCell id=&quot;iX4E62Lxc4KdDLDYWgln-3&quot; value=&quot;&quot; style=&quot;shape=flexArrow;endArrow=classic;html=1;rounded=0;fillColor=#dae8fc;strokeColor=#60B2E5;strokeWidth=3;sketch=1;curveFitting=1;jiggle=2;&quot; edge=&quot;1&quot; parent=&quot;1&quot;&gt;&#10;          &lt;mxGeometry width=&quot;50&quot; height=&quot;50&quot; relative=&quot;1&quot; as=&quot;geometry&quot;&gt;&#10;            &lt;mxPoint x=&quot;337.71&quot; y=&quot;340&quot; as=&quot;sourcePoint&quot; /&gt;&#10;            &lt;mxPoint x=&quot;337.71&quot; y=&quot;410&quot; as=&quot;targetPoint&quot; /&gt;&#10;          &lt;/mxGeometry&gt;&#10;        &lt;/mxCell&gt;&#10;        &lt;mxCell id=&quot;iX4E62Lxc4KdDLDYWgln-4&quot; value=&quot;&quot; style=&quot;shape=flexArrow;endArrow=classic;html=1;rounded=0;fillColor=#dae8fc;strokeColor=#71A2B6;strokeWidth=3;sketch=1;curveFitting=1;jiggle=2;&quot; edge=&quot;1&quot; parent=&quot;1&quot;&gt;&#10;          &lt;mxGeometry width=&quot;50&quot; height=&quot;50&quot; relative=&quot;1&quot; as=&quot;geometry&quot;&gt;&#10;            &lt;mxPoint x=&quot;410&quot; y=&quot;480&quot; as=&quot;sourcePoint&quot; /&gt;&#10;            &lt;mxPoint x=&quot;350&quot; y=&quot;430&quot; as=&quot;targetPoint&quot; /&gt;&#10;          &lt;/mxGeometry&gt;&#10;        &lt;/mxCell&gt;&#10;      &lt;/root&gt;&#10;    &lt;/mxGraphModel&gt;&#10;  &lt;/diagram&gt;&#10;&lt;/mxfile&gt;&#10;"><defs/><rect fill="#ffffff" width="100%" height="100%" x="0" y="0" style="fill: light-dark(#ffffff, var(--ge-dark-color, #121212));"/><g><g data-cell-id="0"><g data-cell-id="1"><g data-cell-id="iX4E62Lxc4KdDLDYWgln-1"><g><path d="M 71 39 L 116 60.61 L 116 117.39 L 71 139 L 26 117.39 L 26 60.61 Z" fill="none" stroke="none" pointer-events="all"/><path d="M 26 60.61 L 71 82.21 L 116 60.61 M 71 82.21 L 71 139" fill="none" stroke="none" pointer-events="all"/><path d="M 71 39 C 82.06 43.95 100.51 57.06 116 60.61 C 116.45 80.37 121.08 97.88 116 117.39 C 106.28 118.98 85.52 125.66 71 139 C 56.32 136.43 57.91 135.83 26 117.39 C 31.41 101.9 23.73 85.25 26 60.61 C 38.35 56.29 45.94 51.61 71 39" fill="#ffffff" stroke="none" pointer-events="all" style="fill: light-dark(#ffffff, var(--ge-dark-color, #121212));"/><path d="M 71 39 C 82.23 42.85 91.93 44.93 116 60.61 M 71 39 C 83.54 42 91.3 49.22 116 60.61 M 116 60.61 C 114.47 77.87 116.57 89.28 116 117.39 M 116 60.61 C 118.23 82.87 117.88 100.9 116 117.39 M 116 117.39 C 99.66 123.05 92.75 130.36 71 139 M 116 117.39 C 102.13 125.32 84.91 130.54 71 139 M 71 139 C 61.37 134.09 52.92 133.43 26 117.39 M 71 139 C 61.14 135.09 47.36 129.47 26 117.39 M 26 117.39 C 22.93 100.13 25.61 75.01 26 60.61 M 26 117.39 C 25.05 98.44 26.41 81.87 26 60.61 M 26 60.61 C 33.38 58.55 50.26 54.73 71 39 M 26 60.61 C 39.79 54.33 55.87 48.85 71 39" fill="none" stroke="#7c8483" stroke-width="3" stroke-linejoin="round" stroke-linecap="round" stroke-miterlimit="10" pointer-events="all" style="stroke: light-dark(rgb(124, 132, 131), rgb(120, 127, 127));"/><path d="M 26 60.61 C 37.23 64.46 46.93 66.53 71 82.21 M 26 60.61 C 38.54 63.6 46.3 70.82 71 82.21 M 71 82.21 C 83.4 77.71 97.96 67.42 116 60.61 M 71 82.21 C 88.92 76.01 105.04 65.36 116 60.61 M 71 82.21 C 68.47 97.82 74.71 115.41 71 139 M 71 82.21 C 72.04 102.2 70.15 119.4 71 139" fill="none" stroke="#7c8483" stroke-width="3" stroke-linejoin="round" stroke-linecap="round" stroke-miterlimit="10" pointer-events="all" style="stroke: light-dark(rgb(124, 132, 131), rgb(120, 127, 127));"/></g></g><g data-cell-id="iX4E62Lxc4KdDLDYWgln-2"><g><path d="M 6.89 143.18 L -0.18 136.11 L 35.68 100.25 L 28.25 92.83 L 52.65 90.35 L 50.17 114.75 L 42.75 107.32 Z" fill="none" stroke="none" pointer-events="all"/><path d="M 28.2 92.89 C 28.2 92.89 28.2 92.89 28.2 92.89 M 28.2 92.89 C 28.2 92.89 28.2 92.89 28.2 92.89 M 31.21 95.52 C 32.64 94.06 32.78 93.26 33.84 92.5 M 31.21 95.52 C 32.38 94.73 33.23 93.46 33.84 92.5 M 0.77 136.63 C 0.65 136.38 7.99 133.05 9.96 126.07 M 0.77 136.63 C 3.13 134.08 6.68 128.7 9.96 126.07 M 34.23 98.14 C 35.87 94.6 39.13 93.6 40.14 91.35 M 34.23 98.14 C 35.38 96.56 37.52 93.86 40.14 91.35 M 3.14 140.01 C 12.28 126.43 29.44 113.92 45.78 90.95 M 3.14 140.01 C 17.41 122.79 32.17 107.52 45.78 90.95 M 6.16 142.63 C 17.59 126.45 32.74 110.16 51.42 90.56 M 6.16 142.63 C 22.61 123.11 39.72 100.92 51.42 90.56 M 37.39 112.81 C 44.49 112.53 42.24 101.61 52.47 95.45 M 37.39 112.81 C 40.93 106.08 44.22 102.45 52.47 95.45 M 45 110.15 C 47.17 109.98 46.75 107.28 51.56 102.6 M 45 110.15 C 46.94 108.07 49.38 105.22 51.56 102.6 M 48.02 112.77 C 47.88 111.72 48.81 110.71 50.64 109.75 M 48.02 112.77 C 48.3 111.93 49.57 111.32 50.64 109.75" fill="none" stroke="#f9d9e1" stroke-width="0.5" stroke-linejoin="round" stroke-linecap="round" stroke-miterlimit="10" pointer-events="all" style="stroke: light-dark(rgb(249, 217, 225), rgb(66, 38, 45));"/><path d="M 6.89 143.18 C 4.63 140.43 1.74 141.7 -0.18 136.11 M 6.89 143.18 C 5.09 140.4 3.33 138.67 -0.18 136.11 M -0.18 136.11 C 9.57 123.16 20.58 113 35.68 100.25 M -0.18 136.11 C 11.7 124.68 25.38 113.27 35.68 100.25 M 35.68 100.25 C 35.34 99.12 30.41 95.13 28.25 92.83 M 35.68 100.25 C 32.84 97.93 30.09 94.91 28.25 92.83 M 28.25 92.83 C 33.49 91.32 44.18 89.97 52.65 90.35 M 28.25 92.83 C 32.49 93.64 40.24 92.89 52.65 90.35 M 52.65 90.35 C 52.68 95.75 48.38 101.18 50.17 114.75 M 52.65 90.35 C 52.85 94.34 49.81 103.04 50.17 114.75 M 50.17 114.75 C 47.59 111.93 45.61 108.74 42.75 107.32 M 50.17 114.75 C 49.12 112.43 46.9 111.43 42.75 107.32 M 42.75 107.32 C 27.06 121.04 11.68 136.57 6.89 143.18 M 42.75 107.32 C 31.54 117.55 24.97 126.57 6.89 143.18" fill="none" stroke="#982649" stroke-linejoin="round" stroke-linecap="round" stroke-miterlimit="10" pointer-events="all" style="stroke: light-dark(rgb(152, 38, 73), rgb(255, 158, 188));"/></g></g><g data-cell-id="iX4E62Lxc4KdDLDYWgln-3"><g><path d="M 64.71 1.5 L 76.71 1.5 L 76.71 47.5 L 88.21 47.5 L 70.71 68.5 L 53.21 47.5 L 64.71 47.5 Z" fill="none" stroke="none" pointer-events="all"/><path d="M 64.76 1.45 C 64.76 1.45 64.76 1.45 64.76 1.45 M 64.76 1.45 C 64.76 1.45 64.76 1.45 64.76 1.45 M 64.63 19.89 C 66.26 14.69 71.35 7.7 77.75 4.79 M 64.63 19.89 C 67.05 13.04 74.37 9.06 77.75 4.79 M 54.66 49.65 C 54.96 49.2 54.95 48.5 55.97 48.14 M 54.66 49.65 C 54.98 49.08 55.43 48.36 55.97 48.14 M 64.5 38.32 C 71.65 34.64 73.85 30.08 77.62 23.23 M 64.5 38.32 C 70.41 31.91 74.95 28.85 77.62 23.23 M 62.4 59.03 C 71.39 49.42 76.44 47.66 77.49 41.67 M 62.4 59.03 C 64.6 55.17 69.09 47.4 77.49 41.67 M 70.15 68.41 C 80.39 62.65 81.31 53.99 88.52 47.28 M 70.15 68.41 C 77.01 64.03 81.38 59.2 88.52 47.28" fill="none" stroke="#dae8fc" stroke-width="1.5" stroke-linejoin="round" stroke-linecap="round" stroke-miterlimit="10" pointer-events="all" style="stroke: light-dark(rgb(218, 232, 252), rgb(29, 41, 59));"/><path d="M 64.71 1.5 C 65.27 3.85 69.73 2.7 76.71 1.5 M 64.71 1.5 C 68.4 1.05 72.76 0.57 76.71 1.5 M 76.71 1.5 C 74.38 19.7 79.92 34.03 76.71 47.5 M 76.71 1.5 C 76.06 16.61 79.31 31.55 76.71 47.5 M 76.71 47.5 C 80.31 49.37 81.73 48.79 88.21 47.5 M 76.71 47.5 C 78.5 48.13 82.33 46.64 88.21 47.5 M 88.21 47.5 C 84.93 53.25 74.98 62.53 70.71 68.5 M 88.21 47.5 C 82.42 56.73 74.79 63.92 70.71 68.5 M 70.71 68.5 C 61.07 64.78 61.36 52.96 53.21 47.5 M 70.71 68.5 C 63.72 59.84 59.8 54.38 53.21 47.5 M 53.21 47.5 C 57.18 49.42 56.51 46.89 64.71 47.5 M 53.21 47.5 C 56.23 47.42 57.78 46.73 64.71 47.5 M 64.71 47.5 C 63.33 36.81 64.45 24.43 64.71 1.5 M 64.71 47.5 C 67.13 35.77 63.91 21.58 64.71 1.5" fill="none" stroke="#60b2e5" stroke-width="3" stroke-linejoin="round" stroke-linecap="round" stroke-miterlimit="10" pointer-events="all" style="stroke: light-dark(rgb(96, 178, 229), rgb(37, 108, 152));"/></g></g><g data-cell-id="iX4E62Lxc4KdDLDYWgln-4"><g><path d="M 145.69 134.43 L 138.01 143.65 L 96.44 109.01 L 89.08 117.85 L 84.15 90.96 L 111.49 90.96 L 104.13 99.79 Z" fill="none" stroke="none" pointer-events="all"/><path d="M 84.04 91.09 C 84.04 91.09 84.04 91.09 84.04 91.09 M 84.04 91.09 C 84.04 91.09 84.04 91.09 84.04 91.09 M 87.19 105.75 C 90.7 102.62 92.21 100.65 100.31 90.66 M 87.19 105.75 C 90.79 100.01 97.18 98.38 100.31 90.66 M 98.87 110.61 C 102.57 110.02 100.96 104.41 106.75 101.55 M 98.87 110.61 C 99.52 107.82 102.72 107.95 106.75 101.55 M 107.93 118.48 C 109.52 113.67 112.63 114.31 115.8 109.42 M 107.93 118.48 C 109.52 116.79 112.95 113.72 115.8 109.42 M 116.99 126.35 C 119.47 125.28 122.78 122.71 124.86 117.29 M 116.99 126.35 C 119.22 123.38 121.24 121.72 124.86 117.29 M 126.04 134.22 C 128.71 130.33 127.45 132.3 133.91 125.17 M 126.04 134.22 C 128.83 131.32 131.37 127.74 133.91 125.17 M 135.75 141.34 C 137.47 137.12 142.12 135.16 143.63 132.29 M 135.75 141.34 C 138.71 137.95 139.06 136.68 143.63 132.29" fill="none" stroke="#dae8fc" stroke-width="1.5" stroke-linejoin="round" stroke-linecap="round" stroke-miterlimit="10" pointer-events="all" style="stroke: light-dark(rgb(218, 232, 252), rgb(29, 41, 59));"/><path d="M 145.69 134.43 C 145.48 137.43 144.17 138.56 138.01 143.65 M 145.69 134.43 C 144.37 136.25 141.91 139.47 138.01 143.65 M 138.01 143.65 C 118.83 129.31 106.2 119.76 96.44 109.01 M 138.01 143.65 C 127.6 133.11 112.51 122.95 96.44 109.01 M 96.44 109.01 C 94.21 111.21 92.65 115.68 89.08 117.85 M 96.44 109.01 C 95.04 112.27 93.25 114.13 89.08 117.85 M 89.08 117.85 C 86.96 111.05 90.04 103.54 84.15 90.96 M 89.08 117.85 C 89.05 110.5 86.62 101.06 84.15 90.96 M 84.15 90.96 C 94.76 89.6 105.23 88.09 111.49 90.96 M 84.15 90.96 C 90.32 92 94.03 91.03 111.49 90.96 M 111.49 90.96 C 108.23 93.46 108.95 96.47 104.13 99.79 M 111.49 90.96 C 109.39 92.67 107.72 94.23 104.13 99.79 M 104.13 99.79 C 115.61 112.03 133.14 119.82 145.69 134.43 M 104.13 99.79 C 115.3 108.81 124.22 118.26 145.69 134.43" fill="none" stroke="#71a2b6" stroke-width="3" stroke-linejoin="round" stroke-linecap="round" stroke-miterlimit="10" pointer-events="all" style="stroke: light-dark(rgb(113, 162, 182), rgb(71, 113, 130));"/></g></g></g></g></g></svg>