<?xml version="1.0" encoding="UTF-8"?>
<!-- Do not edit this file with editors other than draw.io -->
<!DOCTYPE svg PUBLIC "-//W3C//DTD SVG 1.1//EN" "http://www.w3.org/Graphics/SVG/1.1/DTD/svg11.dtd">
<svg xmlns="http://www.w3.org/2000/svg" style="background: #ffffff; background-color: light-dark(#ffffff, var(--ge-dark-color, #121212)); color-scheme: light dark;" xmlns:xlink="http://www.w3.org/1999/xlink" version="1.1" width="178px" height="177px" viewBox="-0.5 -0.5 178 177" content="&lt;mxfile host=&quot;app.diagrams.net&quot; agent=&quot;Mozilla/5.0 (Macintosh; Intel Mac OS X 10_15_7) AppleWebKit/537.36 (KHTML, like Gecko) Chrome/137.0.0.0 Safari/537.36 Edg/137.0.0.0&quot; version=&quot;27.1.5&quot; pages=&quot;3&quot; scale=&quot;1&quot; border=&quot;0&quot;&gt;&#10;  &lt;diagram name=&quot;integration-img&quot; id=&quot;hS2gCD0KR1tBGuV8GCq8&quot;&gt;&#10;    &lt;mxGraphModel dx=&quot;631&quot; dy=&quot;352&quot; grid=&quot;1&quot; gridSize=&quot;10&quot; guides=&quot;1&quot; tooltips=&quot;1&quot; connect=&quot;1&quot; arrows=&quot;1&quot; fold=&quot;1&quot; page=&quot;1&quot; pageScale=&quot;1&quot; pageWidth=&quot;827&quot; pageHeight=&quot;1169&quot; math=&quot;0&quot; shadow=&quot;0&quot;&gt;&#10;      &lt;root&gt;&#10;        &lt;mxCell id=&quot;0&quot; /&gt;&#10;        &lt;mxCell id=&quot;1&quot; parent=&quot;0&quot; /&gt;&#10;        &lt;mxCell id=&quot;QHhDWEK_4P3ibPSqeD0T-1&quot; value=&quot;&quot; style=&quot;shape=document;whiteSpace=wrap;html=1;boundedLbl=1;strokeColor=none;fillColor=#dae8fc;opacity=20;&quot; vertex=&quot;1&quot; parent=&quot;1&quot;&gt;&#10;          &lt;mxGeometry x=&quot;340&quot; y=&quot;376&quot; width=&quot;120&quot; height=&quot;88&quot; as=&quot;geometry&quot; /&gt;&#10;        &lt;/mxCell&gt;&#10;        &lt;mxCell id=&quot;-gwXeNUgbdgCLsNn1iwz-9&quot; value=&quot;&quot; style=&quot;sketch=0;outlineConnect=0;fontColor=#232F3E;gradientColor=none;fillColor=#60B2E5;strokeColor=none;dashed=0;verticalLabelPosition=bottom;verticalAlign=top;align=center;html=1;fontSize=12;fontStyle=0;aspect=fixed;pointerEvents=1;shape=mxgraph.aws4.gear;&quot; vertex=&quot;1&quot; parent=&quot;1&quot;&gt;&#10;          &lt;mxGeometry x=&quot;350&quot; y=&quot;420&quot; width=&quot;30&quot; height=&quot;30&quot; as=&quot;geometry&quot; /&gt;&#10;        &lt;/mxCell&gt;&#10;        &lt;mxCell id=&quot;-gwXeNUgbdgCLsNn1iwz-10&quot; value=&quot;&quot; style=&quot;sketch=0;outlineConnect=0;fontColor=#232F3E;gradientColor=none;fillColor=#71A2B6;strokeColor=none;dashed=0;verticalLabelPosition=bottom;verticalAlign=top;align=center;html=1;fontSize=12;fontStyle=0;aspect=fixed;pointerEvents=1;shape=mxgraph.aws4.gear;rotation=15;&quot; vertex=&quot;1&quot; parent=&quot;1&quot;&gt;&#10;          &lt;mxGeometry x=&quot;365&quot; y=&quot;380&quot; width=&quot;50&quot; height=&quot;50&quot; as=&quot;geometry&quot; /&gt;&#10;        &lt;/mxCell&gt;&#10;        &lt;mxCell id=&quot;-gwXeNUgbdgCLsNn1iwz-11&quot; value=&quot;&quot; style=&quot;sketch=0;outlineConnect=0;fontColor=#232F3E;gradientColor=none;fillColor=#53F4FF;strokeColor=none;dashed=0;verticalLabelPosition=bottom;verticalAlign=top;align=center;html=1;fontSize=12;fontStyle=0;aspect=fixed;pointerEvents=1;shape=mxgraph.aws4.gear;rotation=60;&quot; vertex=&quot;1&quot; parent=&quot;1&quot;&gt;&#10;          &lt;mxGeometry x=&quot;408&quot; y=&quot;408&quot; width=&quot;40&quot; height=&quot;40&quot; as=&quot;geometry&quot; /&gt;&#10;        &lt;/mxCell&gt;&#10;      &lt;/root&gt;&#10;    &lt;/mxGraphModel&gt;&#10;  &lt;/diagram&gt;&#10;  &lt;diagram id=&quot;IOI7_tfFBnW1Y3QOMzzJ&quot; name=&quot;single-tool&quot;&gt;&#10;    &lt;mxGraphModel dx=&quot;1206&quot; dy=&quot;672&quot; grid=&quot;1&quot; gridSize=&quot;10&quot; guides=&quot;1&quot; tooltips=&quot;1&quot; connect=&quot;1&quot; arrows=&quot;1&quot; fold=&quot;1&quot; page=&quot;1&quot; pageScale=&quot;1&quot; pageWidth=&quot;827&quot; pageHeight=&quot;1169&quot; math=&quot;0&quot; shadow=&quot;0&quot;&gt;&#10;      &lt;root&gt;&#10;        &lt;mxCell id=&quot;0&quot; /&gt;&#10;        &lt;mxCell id=&quot;1&quot; parent=&quot;0&quot; /&gt;&#10;        &lt;mxCell id=&quot;iX4E62Lxc4KdDLDYWgln-1&quot; value=&quot;&quot; style=&quot;html=1;whiteSpace=wrap;shape=isoCube2;backgroundOutline=1;isoAngle=15;strokeColor=#7C8483;strokeWidth=3;sketch=1;curveFitting=1;jiggle=2;&quot; vertex=&quot;1&quot; parent=&quot;1&quot;&gt;&#10;          &lt;mxGeometry x=&quot;293&quot; y=&quot;379&quot; width=&quot;90&quot; height=&quot;100&quot; as=&quot;geometry&quot; /&gt;&#10;        &lt;/mxCell&gt;&#10;        &lt;mxCell id=&quot;iX4E62Lxc4KdDLDYWgln-2&quot; value=&quot;&quot; style=&quot;shape=flexArrow;endArrow=classic;html=1;rounded=0;fillColor=#F9D9E1;strokeColor=#982649;shadow=0;sketch=1;curveFitting=1;jiggle=2;&quot; edge=&quot;1&quot; parent=&quot;1&quot;&gt;&#10;          &lt;mxGeometry width=&quot;50&quot; height=&quot;50&quot; relative=&quot;1&quot; as=&quot;geometry&quot;&gt;&#10;            &lt;mxPoint x=&quot;270&quot; y=&quot;480&quot; as=&quot;sourcePoint&quot; /&gt;&#10;            &lt;mxPoint x=&quot;320&quot; y=&quot;430&quot; as=&quot;targetPoint&quot; /&gt;&#10;          &lt;/mxGeometry&gt;&#10;        &lt;/mxCell&gt;&#10;        &lt;mxCell id=&quot;iX4E62Lxc4KdDLDYWgln-3&quot; value=&quot;&quot; style=&quot;shape=flexArrow;endArrow=classic;html=1;rounded=0;fillColor=#dae8fc;strokeColor=#60B2E5;strokeWidth=3;sketch=1;curveFitting=1;jiggle=2;&quot; edge=&quot;1&quot; parent=&quot;1&quot;&gt;&#10;          &lt;mxGeometry width=&quot;50&quot; height=&quot;50&quot; relative=&quot;1&quot; as=&quot;geometry&quot;&gt;&#10;            &lt;mxPoint x=&quot;337.71&quot; y=&quot;340&quot; as=&quot;sourcePoint&quot; /&gt;&#10;            &lt;mxPoint x=&quot;337.71&quot; y=&quot;410&quot; as=&quot;targetPoint&quot; /&gt;&#10;          &lt;/mxGeometry&gt;&#10;        &lt;/mxCell&gt;&#10;        &lt;mxCell id=&quot;iX4E62Lxc4KdDLDYWgln-4&quot; value=&quot;&quot; style=&quot;shape=flexArrow;endArrow=classic;html=1;rounded=0;fillColor=#dae8fc;strokeColor=#71A2B6;strokeWidth=3;sketch=1;curveFitting=1;jiggle=2;&quot; edge=&quot;1&quot; parent=&quot;1&quot;&gt;&#10;          &lt;mxGeometry width=&quot;50&quot; height=&quot;50&quot; relative=&quot;1&quot; as=&quot;geometry&quot;&gt;&#10;            &lt;mxPoint x=&quot;410&quot; y=&quot;480&quot; as=&quot;sourcePoint&quot; /&gt;&#10;            &lt;mxPoint x=&quot;350&quot; y=&quot;430&quot; as=&quot;targetPoint&quot; /&gt;&#10;          &lt;/mxGeometry&gt;&#10;        &lt;/mxCell&gt;&#10;      &lt;/root&gt;&#10;    &lt;/mxGraphModel&gt;&#10;  &lt;/diagram&gt;&#10;  &lt;diagram id=&quot;u-9jjRXno1pS1NvU1wpT&quot; name=&quot;tech-gnostic&quot;&gt;&#10;    &lt;mxGraphModel dx=&quot;976&quot; dy=&quot;544&quot; grid=&quot;1&quot; gridSize=&quot;10&quot; guides=&quot;1&quot; tooltips=&quot;1&quot; connect=&quot;1&quot; arrows=&quot;1&quot; fold=&quot;1&quot; page=&quot;1&quot; pageScale=&quot;1&quot; pageWidth=&quot;827&quot; pageHeight=&quot;1169&quot; math=&quot;0&quot; shadow=&quot;0&quot;&gt;&#10;      &lt;root&gt;&#10;        &lt;mxCell id=&quot;0&quot; /&gt;&#10;        &lt;mxCell id=&quot;1&quot; parent=&quot;0&quot; /&gt;&#10;        &lt;mxCell id=&quot;A6Fnrb8D3ymSiSgNN0lG-8&quot; value=&quot;&quot; style=&quot;whiteSpace=wrap;html=1;aspect=fixed;sketch=1;curveFitting=1;jiggle=2;strokeColor=#982649;strokeWidth=3;perimeterSpacing=0;rounded=1;&quot; vertex=&quot;1&quot; parent=&quot;1&quot;&gt;&#10;          &lt;mxGeometry x=&quot;310&quot; y=&quot;350&quot; width=&quot;80&quot; height=&quot;80&quot; as=&quot;geometry&quot; /&gt;&#10;        &lt;/mxCell&gt;&#10;        &lt;mxCell id=&quot;A6Fnrb8D3ymSiSgNN0lG-9&quot; value=&quot;&quot; style=&quot;ellipse;whiteSpace=wrap;html=1;aspect=fixed;strokeColor=#60B2E5;strokeWidth=6;dashed=1;dashPattern=8 8;sketch=1;curveFitting=1;jiggle=2;shadow=0;gradientColor=none;&quot; vertex=&quot;1&quot; parent=&quot;1&quot;&gt;&#10;          &lt;mxGeometry x=&quot;400&quot; y=&quot;300&quot; width=&quot;80&quot; height=&quot;80&quot; as=&quot;geometry&quot; /&gt;&#10;        &lt;/mxCell&gt;&#10;        &lt;mxCell id=&quot;A6Fnrb8D3ymSiSgNN0lG-10&quot; value=&quot;&quot; style=&quot;triangle;whiteSpace=wrap;html=1;rotation=50;strokeColor=#53F4FF;sketch=1;curveFitting=1;jiggle=2;strokeWidth=2;dashed=1;dashPattern=12 12;&quot; vertex=&quot;1&quot; parent=&quot;1&quot;&gt;&#10;          &lt;mxGeometry x=&quot;323.57&quot; y=&quot;272.34&quot; width=&quot;80&quot; height=&quot;80&quot; as=&quot;geometry&quot; /&gt;&#10;        &lt;/mxCell&gt;&#10;      &lt;/root&gt;&#10;    &lt;/mxGraphModel&gt;&#10;  &lt;/diagram&gt;&#10;&lt;/mxfile&gt;&#10;"><defs/><rect fill="#ffffff" width="100%" height="100%" x="0" y="0" style="fill: light-dark(#ffffff, var(--ge-dark-color, #121212));"/><g><g data-cell-id="0"><g data-cell-id="1"><g data-cell-id="A6Fnrb8D3ymSiSgNN0lG-8"><g><rect x="4" y="95" width="80" height="80" rx="12" ry="12" fill="none" stroke="none" pointer-events="all"/><path d="M 16 95 C 30.98 94.47 44.99 91.69 72 95 C 83.59 92.13 78.64 99.82 84 107 C 81.98 131.2 84.21 150.85 84 163 C 85.46 168.98 81.85 179.21 72 175 C 56.24 171.29 35.28 174.03 16 175 C 11.92 171.79 1.93 166.42 4 163 C 6.28 146.67 2.86 127.31 4 107 C 9.21 102.95 7.42 93.07 16 95" fill="#ffffff" stroke="none" pointer-events="all" style="fill: light-dark(#ffffff, var(--ge-dark-color, #121212));"/><path d="M 16 95 C 41.69 97.56 60.22 93.72 72 95 M 16 95 C 28.8 93.47 40.69 97.07 72 95 M 72 95 C 82.46 93.95 81.37 97.6 84 107 M 72 95 C 82.56 97.61 82.03 94.92 84 107 M 84 107 C 86.79 123.15 83.27 141.55 84 163 M 84 107 C 84.49 122.95 82.27 141.28 84 163 M 84 163 C 83.32 173.55 77.25 178.52 72 175 M 84 163 C 80.31 171.2 83.69 170.64 72 175 M 72 175 C 56.62 177.62 43.38 173.53 16 175 M 72 175 C 51.14 173.78 28.57 174.05 16 175 M 16 175 C 6.76 173.8 6.24 173.6 4 163 M 16 175 C 4.75 173.42 3.62 174.37 4 163 M 4 163 C 5.52 149.15 6.12 132.83 4 107 M 4 163 C 2.32 141.05 4.77 121.35 4 107 M 4 107 C 5.84 96.41 11.29 98.32 16 95 M 4 107 C 8.38 100.5 4.84 98.28 16 95" fill="none" stroke="#982649" stroke-width="3" stroke-linejoin="round" stroke-linecap="round" stroke-miterlimit="10" pointer-events="all" style="stroke: light-dark(rgb(152, 38, 73), rgb(255, 158, 188));"/></g></g><g data-cell-id="A6Fnrb8D3ymSiSgNN0lG-9"><g><ellipse cx="134" cy="85" rx="40" ry="40" fill="none" stroke="none" pointer-events="all"/><path d="M 114.42 51.95 C 120.23 47.99 128.22 43.74 135.04 43.7 C 141.87 43.66 149.55 47.3 155.38 51.73 C 161.21 56.17 167.35 63.62 170.05 70.3 C 172.74 76.98 172.94 85.1 171.56 91.82 C 170.17 98.54 166.67 105.38 161.72 110.61 C 156.78 115.85 148.53 120.92 141.89 123.21 C 135.25 125.5 128.18 126.53 121.87 124.35 C 115.56 122.16 108.51 116.19 104.03 110.11 C 99.54 104.02 96.02 95.38 94.96 87.83 C 93.9 80.28 90.91 71.64 97.66 64.8 C 104.42 57.96 125.3 48.67 135.51 46.8 C 145.71 44.92 158.7 53.12 158.9 53.54 M 131.99 44.12 C 139.18 43.36 147.37 47.17 153.94 50.69 C 160.51 54.22 168.12 59.34 171.41 65.27 C 174.7 71.2 174.78 78.89 173.67 86.28 C 172.55 93.67 168.88 103.68 164.72 109.61 C 160.56 115.55 155.15 119.57 148.73 121.9 C 142.31 124.23 133.14 124.69 126.2 123.59 C 119.27 122.49 112.55 120.07 107.13 115.28 C 101.71 110.49 95 102.18 93.7 94.85 C 92.41 87.51 96.86 78.14 99.37 71.28 C 101.88 64.42 102.84 57.89 108.78 53.69 C 114.71 49.49 131.44 47.68 134.97 46.06 C 138.5 44.43 130.13 43.69 129.94 43.93" fill="#ffffff" stroke="none" pointer-events="all" style="fill: light-dark(#ffffff, var(--ge-dark-color, #121212));"/><path d="M 142.38 46.07 C 149.68 46.94 158.25 49.98 163.15 55.19 C 168.06 60.4 170.28 69.74 171.8 77.34 C 173.33 84.95 174.91 93.97 172.29 100.83 C 169.66 107.7 162.11 114.65 156.04 118.54 C 149.97 122.43 142.78 123.91 135.86 124.18 C 128.95 124.44 120.39 123.45 114.53 120.13 C 108.66 116.81 104.33 110.37 100.66 104.23 C 97 98.09 92.25 90.42 92.55 83.3 C 92.85 76.18 98.19 67.37 102.48 61.53 C 106.77 55.69 108.9 49.55 118.29 48.27 C 127.68 46.99 150.23 50.13 158.82 53.85 C 167.41 57.56 170.11 69.86 169.84 70.56 M 166.79 56.95 C 171.7 61.04 171.56 70.06 172.16 77.92 C 172.76 85.77 173.43 97.58 170.41 104.09 C 167.38 110.61 160.71 113.81 154.02 117.02 C 147.32 120.23 137.48 123.27 130.23 123.38 C 122.98 123.49 115.66 121.94 110.5 117.67 C 105.35 113.4 101.9 104.18 99.32 97.77 C 96.73 91.35 94.33 85.42 95 79.19 C 95.66 72.95 98.78 65.67 103.31 60.36 C 107.85 55.04 115.12 49.26 122.21 47.32 C 129.3 45.37 138.96 46.66 145.85 48.71 C 152.74 50.76 160.89 57.35 163.55 59.62 C 166.2 61.89 162.1 61.98 161.77 62.33" fill="none" stroke="#60b2e5" stroke-width="6" stroke-linejoin="round" stroke-linecap="round" stroke-miterlimit="10" stroke-dasharray="48 48" pointer-events="all" style="stroke: light-dark(rgb(96, 178, 229), rgb(37, 108, 152));"/></g></g><g data-cell-id="A6Fnrb8D3ymSiSgNN0lG-10"><g><path d="M 17.57 17.34 L 97.57 57.34 L 17.57 97.34 Z" fill="none" stroke="none" transform="rotate(50,57.57,57.34)" pointer-events="all"/><path d="M 17.57 17.34 C 30.62 23.22 52.83 33.93 97.57 57.34 C 63.89 69.67 35.3 93.97 17.57 97.34 C 17.28 68.39 20.24 51.48 17.57 17.34" fill="#ffffff" stroke="none" transform="rotate(50,57.57,57.34)" pointer-events="all" style="fill: light-dark(#ffffff, var(--ge-dark-color, #121212));"/><path d="M 17.57 17.34 C 42.17 26.97 55.72 35.11 97.57 57.34 M 17.57 17.34 C 36.45 26.71 55.31 36.23 97.57 57.34 M 97.57 57.34 C 79 67.12 52.6 78.43 17.57 97.34 M 97.57 57.34 C 73.99 72.63 45.17 85.06 17.57 97.34 M 17.57 97.34 C 14.57 68.91 13.98 48.28 17.57 17.34 M 17.57 97.34 C 20.04 74.05 19.03 51.57 17.57 17.34" fill="none" stroke="#53f4ff" stroke-width="2" stroke-linejoin="round" stroke-linecap="round" stroke-miterlimit="10" stroke-dasharray="24 24" transform="rotate(50,57.57,57.34)" pointer-events="all" style="stroke: light-dark(rgb(83, 244, 255), rgb(0, 85, 94));"/></g></g></g></g></g></svg>