<?xml version="1.0" encoding="UTF-8"?>
<!-- Do not edit this file with editors other than draw.io -->
<!DOCTYPE svg PUBLIC "-//W3C//DTD SVG 1.1//EN" "http://www.w3.org/Graphics/SVG/1.1/DTD/svg11.dtd">
<svg xmlns="http://www.w3.org/2000/svg" style="background: #ffffff; background-color: light-dark(#ffffff, var(--ge-dark-color, #121212)); color-scheme: light dark;" xmlns:xlink="http://www.w3.org/1999/xlink" version="1.1" width="90px" height="85px" viewBox="-0.5 -0.5 90 85" content="&lt;mxfile host=&quot;app.diagrams.net&quot; agent=&quot;Mozilla/5.0 (Macintosh; Intel Mac OS X 10_15_7) AppleWebKit/537.36 (KHTML, like Gecko) Chrome/137.0.0.0 Safari/537.36 Edg/137.0.0.0&quot; version=&quot;27.1.5&quot; pages=&quot;5&quot; scale=&quot;1&quot; border=&quot;0&quot;&gt;&#10;  &lt;diagram name=&quot;integration-img&quot; id=&quot;hS2gCD0KR1tBGuV8GCq8&quot;&gt;&#10;    &lt;mxGraphModel dx=&quot;1108&quot; dy=&quot;618&quot; grid=&quot;1&quot; gridSize=&quot;10&quot; guides=&quot;1&quot; tooltips=&quot;1&quot; connect=&quot;1&quot; arrows=&quot;1&quot; fold=&quot;1&quot; page=&quot;1&quot; pageScale=&quot;1&quot; pageWidth=&quot;827&quot; pageHeight=&quot;1169&quot; math=&quot;0&quot; shadow=&quot;0&quot;&gt;&#10;      &lt;root&gt;&#10;        &lt;mxCell id=&quot;0&quot; /&gt;&#10;        &lt;mxCell id=&quot;1&quot; parent=&quot;0&quot; /&gt;&#10;        &lt;mxCell id=&quot;SWcFB0jZRpMFO4eK7EId-1&quot; value=&quot;&quot; style=&quot;html=1;whiteSpace=wrap;shape=isoCube2;backgroundOutline=1;isoAngle=15;strokeColor=#7C8483;strokeWidth=2;sketch=1;curveFitting=1;jiggle=2;&quot; vertex=&quot;1&quot; parent=&quot;1&quot;&gt;&#10;          &lt;mxGeometry x=&quot;270&quot; y=&quot;390&quot; width=&quot;90&quot; height=&quot;100&quot; as=&quot;geometry&quot; /&gt;&#10;        &lt;/mxCell&gt;&#10;        &lt;mxCell id=&quot;SWcFB0jZRpMFO4eK7EId-3&quot; value=&quot;&quot; style=&quot;html=1;whiteSpace=wrap;shape=isoCube2;backgroundOutline=1;isoAngle=15;strokeColor=#71A2B6;strokeWidth=2;sketch=1;curveFitting=1;jiggle=2;&quot; vertex=&quot;1&quot; parent=&quot;1&quot;&gt;&#10;          &lt;mxGeometry x=&quot;333&quot; y=&quot;438.89&quot; width=&quot;18&quot; height=&quot;20&quot; as=&quot;geometry&quot; /&gt;&#10;        &lt;/mxCell&gt;&#10;        &lt;mxCell id=&quot;SWcFB0jZRpMFO4eK7EId-4&quot; value=&quot;&quot; style=&quot;html=1;whiteSpace=wrap;shape=isoCube2;backgroundOutline=1;isoAngle=15;strokeColor=#53F4FF;strokeWidth=2;sketch=1;curveFitting=1;jiggle=2;&quot; vertex=&quot;1&quot; parent=&quot;1&quot;&gt;&#10;          &lt;mxGeometry x=&quot;280&quot; y=&quot;430&quot; width=&quot;26&quot; height=&quot;28.89&quot; as=&quot;geometry&quot; /&gt;&#10;        &lt;/mxCell&gt;&#10;        &lt;mxCell id=&quot;SWcFB0jZRpMFO4eK7EId-5&quot; value=&quot;&quot; style=&quot;html=1;whiteSpace=wrap;shape=isoCube2;backgroundOutline=1;isoAngle=15;strokeColor=#982649;strokeWidth=2;sketch=1;curveFitting=1;jiggle=2;&quot; vertex=&quot;1&quot; parent=&quot;1&quot;&gt;&#10;          &lt;mxGeometry x=&quot;297&quot; y=&quot;380&quot; width=&quot;36&quot; height=&quot;40&quot; as=&quot;geometry&quot; /&gt;&#10;        &lt;/mxCell&gt;&#10;      &lt;/root&gt;&#10;    &lt;/mxGraphModel&gt;&#10;  &lt;/diagram&gt;&#10;  &lt;diagram id=&quot;IOI7_tfFBnW1Y3QOMzzJ&quot; name=&quot;single-tool&quot;&gt;&#10;    &lt;mxGraphModel dx=&quot;1206&quot; dy=&quot;672&quot; grid=&quot;1&quot; gridSize=&quot;10&quot; guides=&quot;1&quot; tooltips=&quot;1&quot; connect=&quot;1&quot; arrows=&quot;1&quot; fold=&quot;1&quot; page=&quot;1&quot; pageScale=&quot;1&quot; pageWidth=&quot;827&quot; pageHeight=&quot;1169&quot; math=&quot;0&quot; shadow=&quot;0&quot;&gt;&#10;      &lt;root&gt;&#10;        &lt;mxCell id=&quot;0&quot; /&gt;&#10;        &lt;mxCell id=&quot;1&quot; parent=&quot;0&quot; /&gt;&#10;        &lt;mxCell id=&quot;iX4E62Lxc4KdDLDYWgln-1&quot; value=&quot;&quot; style=&quot;html=1;whiteSpace=wrap;shape=isoCube2;backgroundOutline=1;isoAngle=15;strokeColor=#7C8483;strokeWidth=3;sketch=1;curveFitting=1;jiggle=2;&quot; vertex=&quot;1&quot; parent=&quot;1&quot;&gt;&#10;          &lt;mxGeometry x=&quot;293&quot; y=&quot;379&quot; width=&quot;90&quot; height=&quot;100&quot; as=&quot;geometry&quot; /&gt;&#10;        &lt;/mxCell&gt;&#10;        &lt;mxCell id=&quot;iX4E62Lxc4KdDLDYWgln-2&quot; value=&quot;&quot; style=&quot;shape=flexArrow;endArrow=classic;html=1;rounded=0;fillColor=#F9D9E1;strokeColor=#982649;shadow=0;sketch=1;curveFitting=1;jiggle=2;&quot; edge=&quot;1&quot; parent=&quot;1&quot;&gt;&#10;          &lt;mxGeometry width=&quot;50&quot; height=&quot;50&quot; relative=&quot;1&quot; as=&quot;geometry&quot;&gt;&#10;            &lt;mxPoint x=&quot;270&quot; y=&quot;480&quot; as=&quot;sourcePoint&quot; /&gt;&#10;            &lt;mxPoint x=&quot;320&quot; y=&quot;430&quot; as=&quot;targetPoint&quot; /&gt;&#10;          &lt;/mxGeometry&gt;&#10;        &lt;/mxCell&gt;&#10;        &lt;mxCell id=&quot;iX4E62Lxc4KdDLDYWgln-3&quot; value=&quot;&quot; style=&quot;shape=flexArrow;endArrow=classic;html=1;rounded=0;fillColor=#dae8fc;strokeColor=#60B2E5;strokeWidth=3;sketch=1;curveFitting=1;jiggle=2;&quot; edge=&quot;1&quot; parent=&quot;1&quot;&gt;&#10;          &lt;mxGeometry width=&quot;50&quot; height=&quot;50&quot; relative=&quot;1&quot; as=&quot;geometry&quot;&gt;&#10;            &lt;mxPoint x=&quot;337.71&quot; y=&quot;340&quot; as=&quot;sourcePoint&quot; /&gt;&#10;            &lt;mxPoint x=&quot;337.71&quot; y=&quot;410&quot; as=&quot;targetPoint&quot; /&gt;&#10;          &lt;/mxGeometry&gt;&#10;        &lt;/mxCell&gt;&#10;        &lt;mxCell id=&quot;iX4E62Lxc4KdDLDYWgln-4&quot; value=&quot;&quot; style=&quot;shape=flexArrow;endArrow=classic;html=1;rounded=0;fillColor=#dae8fc;strokeColor=#71A2B6;strokeWidth=3;sketch=1;curveFitting=1;jiggle=2;&quot; edge=&quot;1&quot; parent=&quot;1&quot;&gt;&#10;          &lt;mxGeometry width=&quot;50&quot; height=&quot;50&quot; relative=&quot;1&quot; as=&quot;geometry&quot;&gt;&#10;            &lt;mxPoint x=&quot;410&quot; y=&quot;480&quot; as=&quot;sourcePoint&quot; /&gt;&#10;            &lt;mxPoint x=&quot;350&quot; y=&quot;430&quot; as=&quot;targetPoint&quot; /&gt;&#10;          &lt;/mxGeometry&gt;&#10;        &lt;/mxCell&gt;&#10;      &lt;/root&gt;&#10;    &lt;/mxGraphModel&gt;&#10;  &lt;/diagram&gt;&#10;  &lt;diagram id=&quot;u-9jjRXno1pS1NvU1wpT&quot; name=&quot;tech-gnostic&quot;&gt;&#10;    &lt;mxGraphModel dx=&quot;976&quot; dy=&quot;544&quot; grid=&quot;1&quot; gridSize=&quot;10&quot; guides=&quot;1&quot; tooltips=&quot;1&quot; connect=&quot;1&quot; arrows=&quot;1&quot; fold=&quot;1&quot; page=&quot;1&quot; pageScale=&quot;1&quot; pageWidth=&quot;827&quot; pageHeight=&quot;1169&quot; math=&quot;0&quot; shadow=&quot;0&quot;&gt;&#10;      &lt;root&gt;&#10;        &lt;mxCell id=&quot;0&quot; /&gt;&#10;        &lt;mxCell id=&quot;1&quot; parent=&quot;0&quot; /&gt;&#10;        &lt;mxCell id=&quot;A6Fnrb8D3ymSiSgNN0lG-8&quot; value=&quot;&quot; style=&quot;whiteSpace=wrap;html=1;aspect=fixed;sketch=1;curveFitting=1;jiggle=2;strokeColor=#982649;strokeWidth=3;perimeterSpacing=0;rounded=1;&quot; vertex=&quot;1&quot; parent=&quot;1&quot;&gt;&#10;          &lt;mxGeometry x=&quot;310&quot; y=&quot;350&quot; width=&quot;80&quot; height=&quot;80&quot; as=&quot;geometry&quot; /&gt;&#10;        &lt;/mxCell&gt;&#10;        &lt;mxCell id=&quot;A6Fnrb8D3ymSiSgNN0lG-9&quot; value=&quot;&quot; style=&quot;ellipse;whiteSpace=wrap;html=1;aspect=fixed;strokeColor=#60B2E5;strokeWidth=6;dashed=1;dashPattern=8 8;sketch=1;curveFitting=1;jiggle=2;shadow=0;gradientColor=none;&quot; vertex=&quot;1&quot; parent=&quot;1&quot;&gt;&#10;          &lt;mxGeometry x=&quot;400&quot; y=&quot;300&quot; width=&quot;80&quot; height=&quot;80&quot; as=&quot;geometry&quot; /&gt;&#10;        &lt;/mxCell&gt;&#10;        &lt;mxCell id=&quot;A6Fnrb8D3ymSiSgNN0lG-10&quot; value=&quot;&quot; style=&quot;triangle;whiteSpace=wrap;html=1;rotation=50;strokeColor=#53F4FF;sketch=1;curveFitting=1;jiggle=2;strokeWidth=2;dashed=1;dashPattern=12 12;&quot; vertex=&quot;1&quot; parent=&quot;1&quot;&gt;&#10;          &lt;mxGeometry x=&quot;323.57&quot; y=&quot;272.34&quot; width=&quot;80&quot; height=&quot;80&quot; as=&quot;geometry&quot; /&gt;&#10;        &lt;/mxCell&gt;&#10;      &lt;/root&gt;&#10;    &lt;/mxGraphModel&gt;&#10;  &lt;/diagram&gt;&#10;  &lt;diagram id=&quot;tee8rX2BvimiMHhmCzEW&quot; name=&quot;logo&quot;&gt;&#10;    &lt;mxGraphModel dx=&quot;1139&quot; dy=&quot;635&quot; grid=&quot;1&quot; gridSize=&quot;10&quot; guides=&quot;1&quot; tooltips=&quot;1&quot; connect=&quot;1&quot; arrows=&quot;1&quot; fold=&quot;1&quot; page=&quot;1&quot; pageScale=&quot;1&quot; pageWidth=&quot;827&quot; pageHeight=&quot;1169&quot; math=&quot;0&quot; shadow=&quot;0&quot;&gt;&#10;      &lt;root&gt;&#10;        &lt;mxCell id=&quot;0&quot; /&gt;&#10;        &lt;mxCell id=&quot;1&quot; parent=&quot;0&quot; /&gt;&#10;        &lt;mxCell id=&quot;HvibITh8hkulVOcytFVN-1&quot; value=&quot;&quot; style=&quot;ellipse;whiteSpace=wrap;html=1;aspect=fixed;gradientColor=none;sketch=1;curveFitting=1;jiggle=2;gradientDirection=radial;strokeColor=#7C8483;strokeWidth=1;&quot; vertex=&quot;1&quot; parent=&quot;1&quot;&gt;&#10;          &lt;mxGeometry x=&quot;330&quot; y=&quot;360&quot; width=&quot;80&quot; height=&quot;80&quot; as=&quot;geometry&quot; /&gt;&#10;        &lt;/mxCell&gt;&#10;        &lt;mxCell id=&quot;HvibITh8hkulVOcytFVN-2&quot; value=&quot;&quot; style=&quot;triangle;whiteSpace=wrap;html=1;sketch=1;curveFitting=1;jiggle=2;strokeColor=#71A2B6;fillColor=#60B2E5;&quot; vertex=&quot;1&quot; parent=&quot;1&quot;&gt;&#10;          &lt;mxGeometry x=&quot;370&quot; y=&quot;360&quot; width=&quot;30&quot; height=&quot;40&quot; as=&quot;geometry&quot; /&gt;&#10;        &lt;/mxCell&gt;&#10;        &lt;mxCell id=&quot;HvibITh8hkulVOcytFVN-3&quot; value=&quot;&quot; style=&quot;triangle;whiteSpace=wrap;html=1;sketch=1;curveFitting=1;jiggle=2;rotation=60;strokeColor=#60B2E5;fillColor=#53F4FF;&quot; vertex=&quot;1&quot; parent=&quot;1&quot;&gt;&#10;          &lt;mxGeometry x=&quot;378&quot; y=&quot;388&quot; width=&quot;30&quot; height=&quot;40&quot; as=&quot;geometry&quot; /&gt;&#10;        &lt;/mxCell&gt;&#10;        &lt;mxCell id=&quot;HvibITh8hkulVOcytFVN-4&quot; value=&quot;&quot; style=&quot;triangle;whiteSpace=wrap;html=1;sketch=1;curveFitting=1;jiggle=2;strokeColor=#53F4FF;fillColor=#DFFBFF;strokeWidth=1;&quot; vertex=&quot;1&quot; parent=&quot;1&quot;&gt;&#10;          &lt;mxGeometry x=&quot;339&quot; y=&quot;382&quot; width=&quot;30&quot; height=&quot;40&quot; as=&quot;geometry&quot; /&gt;&#10;        &lt;/mxCell&gt;&#10;        &lt;mxCell id=&quot;HvibITh8hkulVOcytFVN-5&quot; value=&quot;&quot; style=&quot;triangle;whiteSpace=wrap;html=1;sketch=1;curveFitting=1;jiggle=2;rotation=90;strokeColor=#71A2B6;fillColor=#60B2E5;&quot; vertex=&quot;1&quot; parent=&quot;1&quot;&gt;&#10;          &lt;mxGeometry x=&quot;362.5&quot; y=&quot;402.5&quot; width=&quot;15&quot; height=&quot;40&quot; as=&quot;geometry&quot; /&gt;&#10;        &lt;/mxCell&gt;&#10;        &lt;mxCell id=&quot;HvibITh8hkulVOcytFVN-6&quot; value=&quot;&quot; style=&quot;triangle;whiteSpace=wrap;html=1;sketch=1;curveFitting=1;jiggle=2;rotation=60;strokeColor=#60B2E5;fillColor=#53F4FF;&quot; vertex=&quot;1&quot; parent=&quot;1&quot;&gt;&#10;          &lt;mxGeometry x=&quot;353.53000000000003&quot; y=&quot;381&quot; width=&quot;18.47&quot; height=&quot;17.12&quot; as=&quot;geometry&quot; /&gt;&#10;        &lt;/mxCell&gt;&#10;        &lt;mxCell id=&quot;HvibITh8hkulVOcytFVN-7&quot; value=&quot;&quot; style=&quot;triangle;whiteSpace=wrap;html=1;sketch=1;curveFitting=1;jiggle=2;rotation=-45;strokeColor=#53F4FF;fillColor=#DFFBFF;&quot; vertex=&quot;1&quot; parent=&quot;1&quot;&gt;&#10;          &lt;mxGeometry x=&quot;350.97&quot; y=&quot;362.65&quot; width=&quot;19.47&quot; height=&quot;11.12&quot; as=&quot;geometry&quot; /&gt;&#10;        &lt;/mxCell&gt;&#10;        &lt;mxCell id=&quot;HvibITh8hkulVOcytFVN-8&quot; value=&quot;&quot; style=&quot;triangle;whiteSpace=wrap;html=1;sketch=1;curveFitting=1;jiggle=2;rotation=-105;&quot; vertex=&quot;1&quot; parent=&quot;1&quot;&gt;&#10;          &lt;mxGeometry x=&quot;342.53&quot; y=&quot;369.11&quot; width=&quot;10&quot; height=&quot;13.77&quot; as=&quot;geometry&quot; /&gt;&#10;        &lt;/mxCell&gt;&#10;        &lt;mxCell id=&quot;HvibITh8hkulVOcytFVN-9&quot; value=&quot;&quot; style=&quot;triangle;whiteSpace=wrap;html=1;sketch=1;curveFitting=1;jiggle=2;rotation=60;strokeColor=#53F4FF;fillColor=#DFFBFF;&quot; vertex=&quot;1&quot; parent=&quot;1&quot;&gt;&#10;          &lt;mxGeometry x=&quot;378.75&quot; y=&quot;417.83&quot; width=&quot;12.5&quot; height=&quot;22.5&quot; as=&quot;geometry&quot; /&gt;&#10;        &lt;/mxCell&gt;&#10;        &lt;mxCell id=&quot;HvibITh8hkulVOcytFVN-10&quot; value=&quot;&quot; style=&quot;triangle;whiteSpace=wrap;html=1;sketch=1;curveFitting=1;jiggle=2;rotation=105;&quot; vertex=&quot;1&quot; parent=&quot;1&quot;&gt;&#10;          &lt;mxGeometry x=&quot;390.09&quot; y=&quot;421.14&quot; width=&quot;7.56&quot; height=&quot;8&quot; as=&quot;geometry&quot; /&gt;&#10;        &lt;/mxCell&gt;&#10;        &lt;mxCell id=&quot;HvibITh8hkulVOcytFVN-11&quot; value=&quot;&quot; style=&quot;triangle;whiteSpace=wrap;html=1;sketch=1;curveFitting=1;jiggle=2;rotation=40;&quot; vertex=&quot;1&quot; parent=&quot;1&quot;&gt;&#10;          &lt;mxGeometry x=&quot;342.88&quot; y=&quot;422.53&quot; width=&quot;21.8&quot; height=&quot;12.5&quot; as=&quot;geometry&quot; /&gt;&#10;        &lt;/mxCell&gt;&#10;        &lt;mxCell id=&quot;HvibITh8hkulVOcytFVN-12&quot; value=&quot;&quot; style=&quot;triangle;whiteSpace=wrap;html=1;sketch=1;curveFitting=1;jiggle=2;rotation=95;strokeColor=#71A2B6;fillColor=#60B2E5;&quot; vertex=&quot;1&quot; parent=&quot;1&quot;&gt;&#10;          &lt;mxGeometry x=&quot;327&quot; y=&quot;402&quot; width=&quot;16.56&quot; height=&quot;8&quot; as=&quot;geometry&quot; /&gt;&#10;        &lt;/mxCell&gt;&#10;        &lt;mxCell id=&quot;HvibITh8hkulVOcytFVN-13&quot; value=&quot;&quot; style=&quot;triangle;whiteSpace=wrap;html=1;sketch=1;curveFitting=1;jiggle=2;rotation=-90;strokeColor=#60B2E5;&quot; vertex=&quot;1&quot; parent=&quot;1&quot;&gt;&#10;          &lt;mxGeometry x=&quot;332.72&quot; y=&quot;388.79&quot; width=&quot;7.56&quot; height=&quot;4.44&quot; as=&quot;geometry&quot; /&gt;&#10;        &lt;/mxCell&gt;&#10;        &lt;mxCell id=&quot;HvibITh8hkulVOcytFVN-14&quot; value=&quot;&quot; style=&quot;triangle;whiteSpace=wrap;html=1;sketch=1;curveFitting=1;jiggle=2;rotation=-155;strokeColor=#60B2E5;fillColor=#53F4FF;&quot; vertex=&quot;1&quot; parent=&quot;1&quot;&gt;&#10;          &lt;mxGeometry x=&quot;358&quot; y=&quot;429&quot; width=&quot;16.56&quot; height=&quot;5.4&quot; as=&quot;geometry&quot; /&gt;&#10;        &lt;/mxCell&gt;&#10;        &lt;mxCell id=&quot;HvibITh8hkulVOcytFVN-15&quot; value=&quot;TOPAZ&quot; style=&quot;text;html=1;align=left;verticalAlign=middle;whiteSpace=wrap;rounded=0;fontFamily=Victor Mono;fontSource=https%3A%2F%2Ffonts.googleapis.com%2Fcss%3Ffamily%3DVictor%2BMono;fontStyle=0;fontSize=34;&quot; vertex=&quot;1&quot; parent=&quot;1&quot;&gt;&#10;          &lt;mxGeometry x=&quot;414&quot; y=&quot;385&quot; width=&quot;60&quot; height=&quot;30&quot; as=&quot;geometry&quot; /&gt;&#10;        &lt;/mxCell&gt;&#10;      &lt;/root&gt;&#10;    &lt;/mxGraphModel&gt;&#10;  &lt;/diagram&gt;&#10;  &lt;diagram id=&quot;YYePivGQsD9ZtKx2jwZN&quot; name=&quot;logo-no-text&quot;&gt;&#10;    &lt;mxGraphModel dx=&quot;2050&quot; dy=&quot;1143&quot; grid=&quot;1&quot; gridSize=&quot;10&quot; guides=&quot;1&quot; tooltips=&quot;1&quot; connect=&quot;1&quot; arrows=&quot;1&quot; fold=&quot;1&quot; page=&quot;1&quot; pageScale=&quot;1&quot; pageWidth=&quot;827&quot; pageHeight=&quot;1169&quot; math=&quot;0&quot; shadow=&quot;0&quot;&gt;&#10;      &lt;root&gt;&#10;        &lt;mxCell id=&quot;0&quot; /&gt;&#10;        &lt;mxCell id=&quot;1&quot; parent=&quot;0&quot; /&gt;&#10;        &lt;mxCell id=&quot;KC3hSLIKeSzCkNVB7rEt-1&quot; value=&quot;&quot; style=&quot;ellipse;whiteSpace=wrap;html=1;aspect=fixed;gradientColor=none;sketch=1;curveFitting=1;jiggle=2;gradientDirection=radial;strokeColor=#7C8483;strokeWidth=1;&quot; vertex=&quot;1&quot; parent=&quot;1&quot;&gt;&#10;          &lt;mxGeometry x=&quot;610&quot; y=&quot;462.6051982182483&quot; width=&quot;80&quot; height=&quot;80&quot; as=&quot;geometry&quot; /&gt;&#10;        &lt;/mxCell&gt;&#10;        &lt;mxCell id=&quot;KC3hSLIKeSzCkNVB7rEt-2&quot; value=&quot;&quot; style=&quot;triangle;whiteSpace=wrap;html=1;sketch=1;curveFitting=1;jiggle=2;strokeColor=#71A2B6;fillColor=#60B2E5;&quot; vertex=&quot;1&quot; parent=&quot;1&quot;&gt;&#10;          &lt;mxGeometry x=&quot;650&quot; y=&quot;462.6051982182483&quot; width=&quot;30&quot; height=&quot;40&quot; as=&quot;geometry&quot; /&gt;&#10;        &lt;/mxCell&gt;&#10;        &lt;mxCell id=&quot;KC3hSLIKeSzCkNVB7rEt-3&quot; value=&quot;&quot; style=&quot;triangle;whiteSpace=wrap;html=1;sketch=1;curveFitting=1;jiggle=2;rotation=60;strokeColor=#60B2E5;fillColor=#53F4FF;&quot; vertex=&quot;1&quot; parent=&quot;1&quot;&gt;&#10;          &lt;mxGeometry x=&quot;658&quot; y=&quot;490.6051982182483&quot; width=&quot;30&quot; height=&quot;40&quot; as=&quot;geometry&quot; /&gt;&#10;        &lt;/mxCell&gt;&#10;        &lt;mxCell id=&quot;KC3hSLIKeSzCkNVB7rEt-4&quot; value=&quot;&quot; style=&quot;triangle;whiteSpace=wrap;html=1;sketch=1;curveFitting=1;jiggle=2;strokeColor=#53F4FF;fillColor=#DFFBFF;strokeWidth=1;&quot; vertex=&quot;1&quot; parent=&quot;1&quot;&gt;&#10;          &lt;mxGeometry x=&quot;619&quot; y=&quot;484.6051982182483&quot; width=&quot;30&quot; height=&quot;40&quot; as=&quot;geometry&quot; /&gt;&#10;        &lt;/mxCell&gt;&#10;        &lt;mxCell id=&quot;KC3hSLIKeSzCkNVB7rEt-5&quot; value=&quot;&quot; style=&quot;triangle;whiteSpace=wrap;html=1;sketch=1;curveFitting=1;jiggle=2;rotation=90;strokeColor=#71A2B6;fillColor=#60B2E5;&quot; vertex=&quot;1&quot; parent=&quot;1&quot;&gt;&#10;          &lt;mxGeometry x=&quot;642.5&quot; y=&quot;505.1051982182483&quot; width=&quot;15&quot; height=&quot;40&quot; as=&quot;geometry&quot; /&gt;&#10;        &lt;/mxCell&gt;&#10;        &lt;mxCell id=&quot;KC3hSLIKeSzCkNVB7rEt-6&quot; value=&quot;&quot; style=&quot;triangle;whiteSpace=wrap;html=1;sketch=1;curveFitting=1;jiggle=2;rotation=60;strokeColor=#60B2E5;fillColor=#53F4FF;&quot; vertex=&quot;1&quot; parent=&quot;1&quot;&gt;&#10;          &lt;mxGeometry x=&quot;633.53&quot; y=&quot;483.6051982182483&quot; width=&quot;18.47&quot; height=&quot;17.12&quot; as=&quot;geometry&quot; /&gt;&#10;        &lt;/mxCell&gt;&#10;        &lt;mxCell id=&quot;KC3hSLIKeSzCkNVB7rEt-7&quot; value=&quot;&quot; style=&quot;triangle;whiteSpace=wrap;html=1;sketch=1;curveFitting=1;jiggle=2;rotation=-45;strokeColor=#53F4FF;fillColor=#DFFBFF;&quot; vertex=&quot;1&quot; parent=&quot;1&quot;&gt;&#10;          &lt;mxGeometry x=&quot;630.97&quot; y=&quot;465.25519821824827&quot; width=&quot;19.47&quot; height=&quot;11.12&quot; as=&quot;geometry&quot; /&gt;&#10;        &lt;/mxCell&gt;&#10;        &lt;mxCell id=&quot;KC3hSLIKeSzCkNVB7rEt-8&quot; value=&quot;&quot; style=&quot;triangle;whiteSpace=wrap;html=1;sketch=1;curveFitting=1;jiggle=2;rotation=-105;&quot; vertex=&quot;1&quot; parent=&quot;1&quot;&gt;&#10;          &lt;mxGeometry x=&quot;622.53&quot; y=&quot;471.7151982182483&quot; width=&quot;10&quot; height=&quot;13.77&quot; as=&quot;geometry&quot; /&gt;&#10;        &lt;/mxCell&gt;&#10;        &lt;mxCell id=&quot;KC3hSLIKeSzCkNVB7rEt-9&quot; value=&quot;&quot; style=&quot;triangle;whiteSpace=wrap;html=1;sketch=1;curveFitting=1;jiggle=2;rotation=60;strokeColor=#53F4FF;fillColor=#DFFBFF;&quot; vertex=&quot;1&quot; parent=&quot;1&quot;&gt;&#10;          &lt;mxGeometry x=&quot;658.75&quot; y=&quot;520.4351982182483&quot; width=&quot;12.5&quot; height=&quot;22.5&quot; as=&quot;geometry&quot; /&gt;&#10;        &lt;/mxCell&gt;&#10;        &lt;mxCell id=&quot;KC3hSLIKeSzCkNVB7rEt-10&quot; value=&quot;&quot; style=&quot;triangle;whiteSpace=wrap;html=1;sketch=1;curveFitting=1;jiggle=2;rotation=105;&quot; vertex=&quot;1&quot; parent=&quot;1&quot;&gt;&#10;          &lt;mxGeometry x=&quot;670.0899999999999&quot; y=&quot;523.7451982182483&quot; width=&quot;7.56&quot; height=&quot;8&quot; as=&quot;geometry&quot; /&gt;&#10;        &lt;/mxCell&gt;&#10;        &lt;mxCell id=&quot;KC3hSLIKeSzCkNVB7rEt-11&quot; value=&quot;&quot; style=&quot;triangle;whiteSpace=wrap;html=1;sketch=1;curveFitting=1;jiggle=2;rotation=40;&quot; vertex=&quot;1&quot; parent=&quot;1&quot;&gt;&#10;          &lt;mxGeometry x=&quot;622.88&quot; y=&quot;525.1351982182482&quot; width=&quot;21.8&quot; height=&quot;12.5&quot; as=&quot;geometry&quot; /&gt;&#10;        &lt;/mxCell&gt;&#10;        &lt;mxCell id=&quot;KC3hSLIKeSzCkNVB7rEt-12&quot; value=&quot;&quot; style=&quot;triangle;whiteSpace=wrap;html=1;sketch=1;curveFitting=1;jiggle=2;rotation=95;strokeColor=#71A2B6;fillColor=#60B2E5;&quot; vertex=&quot;1&quot; parent=&quot;1&quot;&gt;&#10;          &lt;mxGeometry x=&quot;607&quot; y=&quot;504.6051982182483&quot; width=&quot;16.56&quot; height=&quot;8&quot; as=&quot;geometry&quot; /&gt;&#10;        &lt;/mxCell&gt;&#10;        &lt;mxCell id=&quot;KC3hSLIKeSzCkNVB7rEt-13&quot; value=&quot;&quot; style=&quot;triangle;whiteSpace=wrap;html=1;sketch=1;curveFitting=1;jiggle=2;rotation=-90;strokeColor=#60B2E5;&quot; vertex=&quot;1&quot; parent=&quot;1&quot;&gt;&#10;          &lt;mxGeometry x=&quot;612.72&quot; y=&quot;491.3951982182483&quot; width=&quot;7.56&quot; height=&quot;4.44&quot; as=&quot;geometry&quot; /&gt;&#10;        &lt;/mxCell&gt;&#10;        &lt;mxCell id=&quot;KC3hSLIKeSzCkNVB7rEt-14&quot; value=&quot;&quot; style=&quot;triangle;whiteSpace=wrap;html=1;sketch=1;curveFitting=1;jiggle=2;rotation=-155;strokeColor=#60B2E5;fillColor=#53F4FF;&quot; vertex=&quot;1&quot; parent=&quot;1&quot;&gt;&#10;          &lt;mxGeometry x=&quot;638&quot; y=&quot;531.6051982182482&quot; width=&quot;16.56&quot; height=&quot;5.4&quot; as=&quot;geometry&quot; /&gt;&#10;        &lt;/mxCell&gt;&#10;      &lt;/root&gt;&#10;    &lt;/mxGraphModel&gt;&#10;  &lt;/diagram&gt;&#10;&lt;/mxfile&gt;&#10;"><defs><style type="text/css">@import url(https://fonts.googleapis.com/css2?family=Victor+Mono:wght@400;500);&#xa;</style></defs><rect fill="#ffffff" width="100%" height="100%" x="0" y="0" style="fill: light-dark(#ffffff, var(--ge-dark-color, #121212));"/><g><g data-cell-id="0"><g data-cell-id="1"><g data-cell-id="KC3hSLIKeSzCkNVB7rEt-1"><g><ellipse cx="40" cy="42.61" rx="40" ry="40" fill="none" stroke="none" pointer-events="all"/><path d="M 48.51 1.95 C 55.11 2.87 62.05 9.74 67.42 15.41 C 72.79 21.09 79.36 28.95 80.73 36 C 82.1 43.05 78.37 51.41 75.62 57.73 C 72.87 64.05 69.56 69.83 64.23 73.93 C 58.9 78.02 50.89 81.36 43.63 82.31 C 36.37 83.27 26.93 83.15 20.67 79.64 C 14.4 76.13 9.78 67.63 6.04 61.27 C 2.3 54.92 -1.78 48.6 -1.76 41.53 C -1.75 34.46 1.38 24.71 6.13 18.87 C 10.87 13.03 17.59 8.13 26.69 6.49 C 35.78 4.86 54.04 7.71 60.71 9.07 C 67.37 10.42 66.95 14.27 66.7 14.62 M 46.67 0.55 C 52.74 1.09 59.29 10.14 64.07 14.82 C 68.85 19.51 73.27 21.87 75.38 28.66 C 77.49 35.45 77.86 48.37 76.75 55.58 C 75.65 62.79 73.95 67.95 68.73 71.93 C 63.52 75.9 53.3 78.02 45.48 79.42 C 37.65 80.83 27.99 82.45 21.77 80.36 C 15.56 78.27 11.64 73.28 8.19 66.87 C 4.74 60.45 1.44 49.02 1.06 41.85 C 0.69 34.68 2.26 29.81 5.95 23.84 C 9.65 17.88 16.9 9.62 23.24 6.07 C 29.57 2.53 39.98 2.66 43.94 2.58 C 47.89 2.5 47.19 4.45 46.96 5.58" fill="#ffffff" stroke="none" pointer-events="all" style="fill: light-dark(#ffffff, var(--ge-dark-color, #121212));"/><path d="M 36.27 2.52 C 43.47 1.8 54.35 5.58 60.69 8.93 C 67.03 12.27 70.78 16.31 74.29 22.58 C 77.81 28.86 82.43 38.97 81.77 46.58 C 81.1 54.18 74.89 62.64 70.32 68.22 C 65.74 73.79 60.58 77.61 54.34 80.03 C 48.1 82.45 39.94 84.5 32.88 82.72 C 25.81 80.94 17.34 74.75 11.94 69.36 C 6.53 63.97 2.37 57.38 0.46 50.37 C -1.45 43.36 -2.14 33.76 0.49 27.3 C 3.12 20.83 6.81 15.44 16.25 11.58 C 25.69 7.73 47.98 3.16 57.14 4.14 C 66.29 5.13 71.88 16.28 71.18 17.49 M 11.79 13.36 C 15.93 7.9 23.39 6.43 30.84 4.58 C 38.29 2.73 49.57 -0.02 56.48 2.25 C 63.4 4.52 68.6 12 72.35 18.21 C 76.11 24.43 78.91 32.55 79 39.53 C 79.09 46.5 76.47 53.33 72.9 60.07 C 69.32 66.8 63.33 75.95 57.52 79.92 C 51.72 83.9 44.65 84.49 38.09 83.92 C 31.53 83.36 23.73 80.75 18.16 76.53 C 12.6 72.32 8.04 65.38 4.69 58.64 C 1.35 51.89 -2.8 43.82 -1.91 36.05 C -1.02 28.27 7.64 15.05 10.04 11.99 C 12.44 8.93 11.81 16.81 12.47 17.68" fill="none" stroke="#7c8483" stroke-linejoin="round" stroke-linecap="round" stroke-miterlimit="10" pointer-events="all" style="stroke: light-dark(rgb(124, 132, 131), rgb(120, 127, 127));"/></g></g><g data-cell-id="KC3hSLIKeSzCkNVB7rEt-2"><g><path d="M 40 2.61 L 70 22.61 L 40 42.61 Z" fill="none" stroke="none" pointer-events="all"/><path d="M 40 2.61 C 40 2.61 40 2.61 40 2.61 M 40 2.61 C 40 2.61 40 2.61 40 2.61 M 39.74 9 C 41.41 8.31 41.86 6.43 43.67 4.47 M 39.74 9 C 40.38 7.14 42.38 5.98 43.67 4.47 M 40.13 14.65 C 41.1 12.87 42.18 12.18 46.69 7.1 M 40.13 14.65 C 42.56 12.3 44.48 9.53 46.69 7.1 M 39.87 21.04 C 41.22 15.97 46.83 12.88 50.37 8.97 M 39.87 21.04 C 41.3 17.61 45.65 14.22 50.37 8.97 M 40.27 26.69 C 47.52 23.98 44.87 21.62 53.39 11.59 M 40.27 26.69 C 41.89 23.55 45.45 20.41 53.39 11.59 M 40 33.08 C 42.89 30.56 53.13 23.35 57.06 13.46 M 40 33.08 C 45.65 27.58 49.51 22.43 57.06 13.46 M 39.74 39.48 C 44.93 31.34 55.34 24.84 60.08 16.09 M 39.74 39.48 C 46.7 31.49 51.38 24.18 60.08 16.09 M 43.42 41.35 C 52.75 35.48 55.28 26.55 63.76 17.96 M 43.42 41.35 C 48.22 36.67 55.32 29.46 63.76 17.96 M 56.28 32.66 C 62.17 28.59 63.83 23.87 66.77 20.58 M 56.28 32.66 C 59.74 30.01 59.95 25.93 66.77 20.58" fill="none" stroke="#60b2e5" stroke-width="0.5" stroke-linejoin="round" stroke-linecap="round" stroke-miterlimit="10" pointer-events="all" style="stroke: light-dark(rgb(96, 178, 229), rgb(37, 108, 152));"/><path d="M 40 2.61 C 49.99 6.82 62.77 13.13 70 22.61 M 40 2.61 C 50.32 9.56 61.64 17.38 70 22.61 M 70 22.61 C 63.3 23.45 56.81 34.72 40 42.61 M 70 22.61 C 62.88 29.88 51.85 33.34 40 42.61 M 40 42.61 C 40.47 32.91 40.23 19.71 40 2.61 M 40 42.61 C 38.96 31.59 40.6 20.4 40 2.61" fill="none" stroke="#71a2b6" stroke-linejoin="round" stroke-linecap="round" stroke-miterlimit="10" pointer-events="all" style="stroke: light-dark(rgb(113, 162, 182), rgb(71, 113, 130));"/></g></g><g data-cell-id="KC3hSLIKeSzCkNVB7rEt-3"><g><path d="M 48 30.61 L 78 50.61 L 48 70.61 Z" fill="none" stroke="none" transform="rotate(60,63,50.61)" pointer-events="all"/><path d="M 48 30.61 C 48 30.61 48 30.61 48 30.61 M 48 30.61 C 48 30.61 48 30.61 48 30.61 M 47.74 37 C 48.54 34.85 50.49 34.54 51.67 32.47 M 47.74 37 C 48.28 35.82 49.6 34.64 51.67 32.47 M 48.13 42.65 C 51 39.91 50.45 40.18 54.69 35.1 M 48.13 42.65 C 50.25 40.92 52.28 38.95 54.69 35.1 M 47.87 49.04 C 49.62 46.13 53.17 40.34 58.37 36.97 M 47.87 49.04 C 53.28 44.75 54.58 39.59 58.37 36.97 M 48.27 54.69 C 51.24 46.34 56.68 44.58 61.39 39.59 M 48.27 54.69 C 51.28 49.28 57.53 47.95 61.39 39.59 M 48 61.08 C 53.1 53.05 59.42 51.25 65.06 41.46 M 48 61.08 C 50.05 57.47 56.85 50.82 65.06 41.46 M 47.74 67.48 C 56.08 62.74 63.84 54.04 68.08 44.09 M 47.74 67.48 C 54.84 61.08 63.32 49.81 68.08 44.09 M 51.42 69.35 C 55.1 60.19 60.26 57.3 71.76 45.96 M 51.42 69.35 C 60.36 60.16 68.04 50.97 71.76 45.96 M 64.28 60.66 C 67.36 55.75 69.97 54.76 74.77 48.58 M 64.28 60.66 C 67.81 57.4 72.87 51.17 74.77 48.58" fill="none" stroke="#53f4ff" stroke-width="0.5" stroke-linejoin="round" stroke-linecap="round" stroke-miterlimit="10" transform="rotate(60,63,50.61)" pointer-events="all" style="stroke: light-dark(rgb(83, 244, 255), rgb(0, 85, 94));"/><path d="M 48 30.61 C 55.77 41.23 66.2 47.93 78 50.61 M 48 30.61 C 52.92 35.06 59.56 38.77 78 50.61 M 78 50.61 C 69.2 56.16 59.38 57.47 48 70.61 M 78 50.61 C 70.15 57.25 61.65 59.78 48 70.61 M 48 70.61 C 47.33 56.71 51.05 48.05 48 30.61 M 48 70.61 C 50 58.24 49.69 47.18 48 30.61" fill="none" stroke="#60b2e5" stroke-linejoin="round" stroke-linecap="round" stroke-miterlimit="10" transform="rotate(60,63,50.61)" pointer-events="all" style="stroke: light-dark(rgb(96, 178, 229), rgb(37, 108, 152));"/></g></g><g data-cell-id="KC3hSLIKeSzCkNVB7rEt-4"><g><path d="M 9 24.61 L 39 44.61 L 9 64.61 Z" fill="none" stroke="none" pointer-events="all"/><path d="M 9 24.61 C 9 24.61 9 24.61 9 24.61 M 9 24.61 C 9 24.61 9 24.61 9 24.61 M 8.74 31 C 10.28 30.86 10.54 28.23 12.67 26.47 M 8.74 31 C 10.38 29.14 11.03 27.94 12.67 26.47 M 9.13 36.65 C 11.21 35.17 14.35 30.89 15.69 29.1 M 9.13 36.65 C 11.25 35.53 11.37 32.36 15.69 29.1 M 8.87 43.04 C 11.5 35.88 19.38 33.8 19.37 30.97 M 8.87 43.04 C 13.44 40.31 15.99 35.79 19.37 30.97 M 9.27 48.69 C 13.34 45.73 16.24 39.58 22.39 33.59 M 9.27 48.69 C 13.06 45.53 18.01 38.01 22.39 33.59 M 9 55.08 C 10.94 45.61 16.75 45.29 26.06 35.46 M 9 55.08 C 14.87 48.75 24.02 40.68 26.06 35.46 M 8.74 61.48 C 12.24 52.96 25.34 50.05 29.08 38.09 M 8.74 61.48 C 15.99 52.66 24.25 41.45 29.08 38.09 M 12.42 63.35 C 19.38 58.1 27.18 53.23 32.76 39.96 M 12.42 63.35 C 17.44 55.15 25.63 48.65 32.76 39.96 M 25.28 54.66 C 27.17 52.89 32.82 46.81 35.77 42.58 M 25.28 54.66 C 29.99 50.01 31.4 47.25 35.77 42.58" fill="none" stroke="#dffbff" stroke-width="0.5" stroke-linejoin="round" stroke-linecap="round" stroke-miterlimit="10" pointer-events="all" style="stroke: light-dark(rgb(223, 251, 255), rgb(7, 31, 34));"/><path d="M 9 24.61 C 22.55 33.64 30.63 40.74 39 44.61 M 9 24.61 C 18.53 30.57 26.47 34.15 39 44.61 M 39 44.61 C 28.91 46.87 23.75 54.22 9 64.61 M 39 44.61 C 30.41 49.41 24.45 55.01 9 64.61 M 9 64.61 C 7.2 54.51 6.87 50.38 9 24.61 M 9 64.61 C 8.45 50.88 10.18 35.96 9 24.61" fill="none" stroke="#53f4ff" stroke-linejoin="round" stroke-linecap="round" stroke-miterlimit="10" pointer-events="all" style="stroke: light-dark(rgb(83, 244, 255), rgb(0, 85, 94));"/></g></g><g data-cell-id="KC3hSLIKeSzCkNVB7rEt-5"><g><path d="M 32.5 45.11 L 47.5 65.11 L 32.5 85.11 Z" fill="none" stroke="none" transform="rotate(90,40,65.11)" pointer-events="all"/><path d="M 32.5 45.11 C 32.5 45.11 32.5 45.11 32.5 45.11 M 32.5 45.11 C 32.5 45.11 32.5 45.11 32.5 45.11 M 32.24 51.5 C 32.16 51.04 32.81 50.93 34.86 48.48 M 32.24 51.5 C 33.14 50.71 33.92 49.9 34.86 48.48 M 32.63 57.15 C 35.42 55.25 36.47 52.93 37.23 51.86 M 32.63 57.15 C 34.82 55.56 35.89 52.84 37.23 51.86 M 32.37 63.54 C 33.34 61.76 35.9 60.14 39.59 55.24 M 32.37 63.54 C 34.61 62.45 35.02 59.78 39.59 55.24 M 32.77 69.19 C 37.09 65.01 37.38 63.11 42.61 57.87 M 32.77 69.19 C 36.65 65.51 39.39 61.22 42.61 57.87 M 32.5 75.58 C 35.47 70.02 36.27 68.39 44.97 61.25 M 32.5 75.58 C 37.17 68.5 39.72 64.75 44.97 61.25 M 32.24 81.98 C 37.19 78.77 37.96 67.57 47.33 64.62 M 32.24 81.98 C 34.44 76.94 37.17 71.9 47.33 64.62" fill="none" stroke="#60b2e5" stroke-width="0.5" stroke-linejoin="round" stroke-linecap="round" stroke-miterlimit="10" transform="rotate(90,40,65.11)" pointer-events="all" style="stroke: light-dark(rgb(96, 178, 229), rgb(37, 108, 152));"/><path d="M 32.5 45.11 C 38.58 51.43 39.04 58.93 47.5 65.11 M 32.5 45.11 C 37.23 53.57 45.08 61.02 47.5 65.11 M 47.5 65.11 C 40 73.07 36.2 78.45 32.5 85.11 M 47.5 65.11 C 45.19 69.31 40.78 73.98 32.5 85.11 M 32.5 85.11 C 29.56 70.81 33.19 55.22 32.5 45.11 M 32.5 85.11 C 30.99 70.03 34.78 55.25 32.5 45.11" fill="none" stroke="#71a2b6" stroke-linejoin="round" stroke-linecap="round" stroke-miterlimit="10" transform="rotate(90,40,65.11)" pointer-events="all" style="stroke: light-dark(rgb(113, 162, 182), rgb(71, 113, 130));"/></g></g><g data-cell-id="KC3hSLIKeSzCkNVB7rEt-6"><g><path d="M 23.53 23.61 L 42 32.17 L 23.53 40.73 Z" fill="none" stroke="none" transform="rotate(60,32.76,32.17)" pointer-events="all"/><path d="M 23.53 23.61 C 23.53 23.61 23.53 23.61 23.53 23.61 M 23.53 23.61 C 23.53 23.61 23.53 23.61 23.53 23.61 M 23.27 30 C 24.68 27.86 24.75 26.87 27.2 25.47 M 23.27 30 C 24.52 29.34 25.02 28.1 27.2 25.47 M 23.66 35.65 C 25.73 31.6 30 29.02 30.88 27.34 M 23.66 35.65 C 26.77 31.63 28.55 30.43 30.88 27.34 M 24.06 41.29 C 26.34 40.86 28.01 35.8 34.55 29.21 M 24.06 41.29 C 28.09 38.84 32.03 33.19 34.55 29.21 M 32.98 37.12 C 33.65 35.68 37.46 31.21 38.89 30.33 M 32.98 37.12 C 35.93 34.12 36.99 32.37 38.89 30.33" fill="none" stroke="#53f4ff" stroke-width="0.5" stroke-linejoin="round" stroke-linecap="round" stroke-miterlimit="10" transform="rotate(60,32.76,32.17)" pointer-events="all" style="stroke: light-dark(rgb(83, 244, 255), rgb(0, 85, 94));"/><path d="M 23.53 23.61 C 28.57 24.12 35.9 28.01 42 32.17 M 23.53 23.61 C 29.46 27.1 31.35 27.78 42 32.17 M 42 32.17 C 31.87 33.04 32.06 40.48 23.53 40.73 M 42 32.17 C 34.29 35.3 27.73 38.73 23.53 40.73 M 23.53 40.73 C 20.15 37.7 26.64 27.35 23.53 23.61 M 23.53 40.73 C 23.79 37.35 21.93 32.1 23.53 23.61" fill="none" stroke="#60b2e5" stroke-linejoin="round" stroke-linecap="round" stroke-miterlimit="10" transform="rotate(60,32.76,32.17)" pointer-events="all" style="stroke: light-dark(rgb(96, 178, 229), rgb(37, 108, 152));"/></g></g><g data-cell-id="KC3hSLIKeSzCkNVB7rEt-7"><g><path d="M 20.97 5.26 L 40.44 10.82 L 20.97 16.38 Z" fill="none" stroke="none" transform="rotate(-45,30.71,10.82)" pointer-events="all"/><path d="M 20.97 5.26 C 20.97 5.26 20.97 5.26 20.97 5.26 M 20.97 5.26 C 20.97 5.26 20.97 5.26 20.97 5.26 M 20.71 11.65 C 20.42 11.49 24.14 10.42 25.3 6.37 M 20.71 11.65 C 21.84 10.27 23.03 8.81 25.3 6.37 M 21.76 16.54 C 21.5 15.45 24.2 13.79 29.63 7.48 M 21.76 16.54 C 24.78 12.59 26.84 9.83 29.63 7.48 M 28.71 14.64 C 30.05 12.09 29.86 11.41 33.96 8.6 M 28.71 14.64 C 30.07 12.6 31.07 11.69 33.96 8.6 M 35.67 12.73 C 36.06 11.86 36.95 10.91 37.64 10.47 M 35.67 12.73 C 35.87 12.52 36.23 11.46 37.64 10.47" fill="none" stroke="#dffbff" stroke-width="0.5" stroke-linejoin="round" stroke-linecap="round" stroke-miterlimit="10" transform="rotate(-45,30.71,10.82)" pointer-events="all" style="stroke: light-dark(rgb(223, 251, 255), rgb(7, 31, 34));"/><path d="M 20.97 5.26 C 24.09 10.19 37.41 5.42 40.44 10.82 M 20.97 5.26 C 26.91 8.65 33.58 7.46 40.44 10.82 M 40.44 10.82 C 36.72 14.98 25.59 18.9 20.97 16.38 M 40.44 10.82 C 35.31 12.44 26.65 14.17 20.97 16.38 M 20.97 16.38 C 22.57 11.65 20.08 11.47 20.97 5.26 M 20.97 16.38 C 20.45 13.89 20.38 11 20.97 5.26" fill="none" stroke="#53f4ff" stroke-linejoin="round" stroke-linecap="round" stroke-miterlimit="10" transform="rotate(-45,30.71,10.82)" pointer-events="all" style="stroke: light-dark(rgb(83, 244, 255), rgb(0, 85, 94));"/></g></g><g data-cell-id="KC3hSLIKeSzCkNVB7rEt-8"><g><path d="M 12.53 11.72 L 22.53 18.6 L 12.53 25.49 Z" fill="none" stroke="none" transform="rotate(-105,17.53,18.6)" pointer-events="all"/><path d="M 12.53 11.72 C 19.16 13.3 22.81 15.29 22.53 18.6 C 21.34 20.38 16.78 25.87 12.53 25.49 C 14.34 21.04 12.28 20 12.53 11.72" fill="#ffffff" stroke="none" transform="rotate(-105,17.53,18.6)" pointer-events="all" style="fill: light-dark(#ffffff, var(--ge-dark-color, #121212));"/><path d="M 12.53 11.72 C 17.3 14.86 18.46 18.3 22.53 18.6 M 12.53 11.72 C 15.39 13.47 19.1 18.22 22.53 18.6 M 22.53 18.6 C 22.11 19.02 16.31 19.99 12.53 25.49 M 22.53 18.6 C 19.4 20.04 16.12 21.89 12.53 25.49 M 12.53 25.49 C 13.7 21.72 13.35 18.58 12.53 11.72 M 12.53 25.49 C 13.79 22.03 12.36 16.37 12.53 11.72" fill="none" stroke="#000000" stroke-linejoin="round" stroke-linecap="round" stroke-miterlimit="10" transform="rotate(-105,17.53,18.6)" pointer-events="all" style="stroke: light-dark(rgb(0, 0, 0), rgb(255, 255, 255));"/></g></g><g data-cell-id="KC3hSLIKeSzCkNVB7rEt-9"><g><path d="M 48.75 60.44 L 61.25 71.69 L 48.75 82.94 Z" fill="none" stroke="none" transform="rotate(60,55,71.69)" pointer-events="all"/><path d="M 48.75 60.44 C 48.75 60.44 48.75 60.44 48.75 60.44 M 48.75 60.44 C 48.75 60.44 48.75 60.44 48.75 60.44 M 48.49 66.83 C 50.17 65.18 50.67 65.78 51.77 63.06 M 48.49 66.83 C 48.98 65.72 49.7 64.64 51.77 63.06 M 48.88 72.48 C 49.97 68.33 53.84 67.45 54.79 65.68 M 48.88 72.48 C 50.6 70.62 52.32 69.99 54.79 65.68 M 48.62 78.87 C 52.5 78.19 54.15 72.28 57.81 68.31 M 48.62 78.87 C 50.53 75.55 53.49 72.97 57.81 68.31 M 54.92 77.72 C 58.52 74.99 60.1 74.04 60.83 70.93 M 54.92 77.72 C 56.76 75.29 58.48 73.73 60.83 70.93" fill="none" stroke="#dffbff" stroke-width="0.5" stroke-linejoin="round" stroke-linecap="round" stroke-miterlimit="10" transform="rotate(60,55,71.69)" pointer-events="all" style="stroke: light-dark(rgb(223, 251, 255), rgb(7, 31, 34));"/><path d="M 48.75 60.44 C 53.01 63.85 58.9 69.55 61.25 71.69 M 48.75 60.44 C 52.68 62.25 54.98 66.72 61.25 71.69 M 61.25 71.69 C 59.72 77.07 56.37 76.95 48.75 82.94 M 61.25 71.69 C 56.42 73.72 54.14 79.56 48.75 82.94 M 48.75 82.94 C 49.27 79.91 52.71 70.54 48.75 60.44 M 48.75 82.94 C 48.51 76.51 48.48 68.37 48.75 60.44" fill="none" stroke="#53f4ff" stroke-linejoin="round" stroke-linecap="round" stroke-miterlimit="10" transform="rotate(60,55,71.69)" pointer-events="all" style="stroke: light-dark(rgb(83, 244, 255), rgb(0, 85, 94));"/></g></g><g data-cell-id="KC3hSLIKeSzCkNVB7rEt-10"><g><path d="M 60.09 63.75 L 67.65 67.75 L 60.09 71.75 Z" fill="none" stroke="none" transform="rotate(105,63.87,67.75)" pointer-events="all"/><path d="M 60.09 63.75 C 61.11 65.99 62.08 65.79 67.65 67.75 C 64.24 70.49 64.06 69.91 60.09 71.75 C 62.14 68.58 58.86 65.77 60.09 63.75" fill="#ffffff" stroke="none" transform="rotate(105,63.87,67.75)" pointer-events="all" style="fill: light-dark(#ffffff, var(--ge-dark-color, #121212));"/><path d="M 60.09 63.75 C 61.85 66.07 63.12 67.5 67.65 67.75 M 60.09 63.75 C 62.22 64.83 64.64 65.44 67.65 67.75 M 67.65 67.75 C 66.04 67.13 64.69 67.91 60.09 71.75 M 67.65 67.75 C 65.9 68.1 63.66 69.94 60.09 71.75 M 60.09 71.75 C 61.54 69.38 59.81 66.97 60.09 63.75 M 60.09 71.75 C 59.72 68.37 60.38 64.87 60.09 63.75" fill="none" stroke="#000000" stroke-linejoin="round" stroke-linecap="round" stroke-miterlimit="10" transform="rotate(105,63.87,67.75)" pointer-events="all" style="stroke: light-dark(rgb(0, 0, 0), rgb(255, 255, 255));"/></g></g><g data-cell-id="KC3hSLIKeSzCkNVB7rEt-11"><g><path d="M 12.88 65.14 L 34.68 71.39 L 12.88 77.64 Z" fill="none" stroke="none" transform="rotate(40,23.78,71.39)" pointer-events="all"/><path d="M 12.88 65.14 C 26.23 70.39 34.07 75.1 34.68 71.39 C 29.47 76 18.24 72.26 12.88 77.64 C 12.38 74.93 15.69 72.67 12.88 65.14" fill="#ffffff" stroke="none" transform="rotate(40,23.78,71.39)" pointer-events="all" style="fill: light-dark(#ffffff, var(--ge-dark-color, #121212));"/><path d="M 12.88 65.14 C 15.83 67.17 25.55 70.09 34.68 71.39 M 12.88 65.14 C 19.11 68.16 30.7 71.56 34.68 71.39 M 34.68 71.39 C 28.72 73.63 21.6 72.34 12.88 77.64 M 34.68 71.39 C 28.41 74.88 24.27 73.65 12.88 77.64 M 12.88 77.64 C 14.4 75.83 14.18 69.42 12.88 65.14 M 12.88 77.64 C 13.54 74.52 13.34 72.16 12.88 65.14" fill="none" stroke="#000000" stroke-linejoin="round" stroke-linecap="round" stroke-miterlimit="10" transform="rotate(40,23.78,71.39)" pointer-events="all" style="stroke: light-dark(rgb(0, 0, 0), rgb(255, 255, 255));"/></g></g><g data-cell-id="KC3hSLIKeSzCkNVB7rEt-12"><g><path d="M -3 44.61 L 13.56 48.61 L -3 52.61 Z" fill="none" stroke="none" transform="rotate(95,5.28,48.61)" pointer-events="all"/><path d="M -3 44.61 C -3 44.61 -3 44.61 -3 44.61 M -3 44.61 C -3 44.61 -3 44.61 -3 44.61 M -3.26 51 C -2.47 48.94 1.31 46.12 1.33 45.72 M -3.26 51 C -1.33 49.02 -0.8 48.19 1.33 45.72 M 1.07 52.12 C 2.64 50.47 3.09 48.84 5.66 46.83 M 1.07 52.12 C 2.65 50.13 4.86 47.53 5.66 46.83 M 7.37 50.97 C 7.62 49.92 8.22 49.2 9.99 47.95 M 7.37 50.97 C 7.9 49.66 8.91 49.39 9.99 47.95" fill="none" stroke="#60b2e5" stroke-width="0.5" stroke-linejoin="round" stroke-linecap="round" stroke-miterlimit="10" transform="rotate(95,5.28,48.61)" pointer-events="all" style="stroke: light-dark(rgb(96, 178, 229), rgb(37, 108, 152));"/><path d="M -3 44.61 C 3.84 44.51 2.75 46.97 13.56 48.61 M -3 44.61 C 1.51 46.33 4.4 46.89 13.56 48.61 M 13.56 48.61 C 7.7 47.02 6.44 50.27 -3 52.61 M 13.56 48.61 C 7.9 50.89 6.87 52.41 -3 52.61 M -3 52.61 C -2.5 49.46 -4.26 50.07 -3 44.61 M -3 52.61 C -3.07 50.4 -2.38 47.67 -3 44.61" fill="none" stroke="#71a2b6" stroke-linejoin="round" stroke-linecap="round" stroke-miterlimit="10" transform="rotate(95,5.28,48.61)" pointer-events="all" style="stroke: light-dark(rgb(113, 162, 182), rgb(71, 113, 130));"/></g></g><g data-cell-id="KC3hSLIKeSzCkNVB7rEt-13"><g><path d="M 2.72 31.4 L 10.28 33.62 L 2.72 35.84 Z" fill="none" stroke="none" transform="rotate(-90,6.5,33.62)" pointer-events="all"/><path d="M 2.72 31.4 C 3.47 32.99 6.43 34.06 10.28 33.62 C 7.67 34.82 5.06 36.76 2.72 35.84 C 2.16 34.87 1.86 33.99 2.72 31.4" fill="#ffffff" stroke="none" transform="rotate(-90,6.5,33.62)" pointer-events="all" style="fill: light-dark(#ffffff, var(--ge-dark-color, #121212));"/><path d="M 2.72 31.4 C 4.97 30.75 6.66 32.15 10.28 33.62 M 2.72 31.4 C 4.7 32.52 7.79 32.41 10.28 33.62 M 10.28 33.62 C 7 35 5.29 35.64 2.72 35.84 M 10.28 33.62 C 8.85 34.31 6.14 34.87 2.72 35.84 M 2.72 35.84 C 2.74 33.88 2.64 32.38 2.72 31.4 M 2.72 35.84 C 2.4 34.49 3.24 33.19 2.72 31.4" fill="none" stroke="#60b2e5" stroke-linejoin="round" stroke-linecap="round" stroke-miterlimit="10" transform="rotate(-90,6.5,33.62)" pointer-events="all" style="stroke: light-dark(rgb(96, 178, 229), rgb(37, 108, 152));"/></g></g><g data-cell-id="KC3hSLIKeSzCkNVB7rEt-14"><g><path d="M 28 71.61 L 44.56 74.31 L 28 77.01 Z" fill="none" stroke="none" transform="rotate(-155,36.28,74.31)" pointer-events="all"/><path d="M 28 71.61 C 28 71.61 28 71.61 28 71.61 M 28 71.61 C 28 71.61 28 71.61 28 71.61 M 28.39 77.25 C 28.15 76.94 30.42 74.67 32.33 72.72 M 28.39 77.25 C 29.67 75.55 31.17 74.8 32.33 72.72 M 34.69 76.1 C 35.51 75.88 36.07 74.12 37.32 73.08 M 34.69 76.1 C 35.35 75.46 35.89 74.61 37.32 73.08 M 40.99 74.95 C 41.14 74.56 41.43 74.44 41.65 74.19 M 40.99 74.95 C 41.32 74.64 41.46 74.5 41.65 74.19" fill="none" stroke="#53f4ff" stroke-width="0.5" stroke-linejoin="round" stroke-linecap="round" stroke-miterlimit="10" transform="rotate(-155,36.28,74.31)" pointer-events="all" style="stroke: light-dark(rgb(83, 244, 255), rgb(0, 85, 94));"/><path d="M 28 71.61 C 30.97 74.27 39.44 70.32 44.56 74.31 M 28 71.61 C 35.58 74.37 39.43 72.39 44.56 74.31 M 44.56 74.31 C 36.33 73.45 30.03 78.72 28 77.01 M 44.56 74.31 C 40.54 75.03 36.58 75.35 28 77.01 M 28 77.01 C 27.71 75.44 28.65 72.48 28 71.61 M 28 77.01 C 28.15 75.22 27.56 72.82 28 71.61" fill="none" stroke="#60b2e5" stroke-linejoin="round" stroke-linecap="round" stroke-miterlimit="10" transform="rotate(-155,36.28,74.31)" pointer-events="all" style="stroke: light-dark(rgb(96, 178, 229), rgb(37, 108, 152));"/></g></g></g></g></g></svg>