<?xml version="1.0" encoding="UTF-8"?>
<!-- Do not edit this file with editors other than draw.io -->
<!DOCTYPE svg PUBLIC "-//W3C//DTD SVG 1.1//EN" "http://www.w3.org/Graphics/SVG/1.1/DTD/svg11.dtd">
<svg xmlns="http://www.w3.org/2000/svg" style="background: #ffffff; background-color: light-dark(#ffffff, var(--ge-dark-color, #121212)); color-scheme: light dark;" xmlns:xlink="http://www.w3.org/1999/xlink" version="1.1" width="92px" height="112px" viewBox="-0.5 -0.5 92 112" content="&lt;mxfile host=&quot;app.diagrams.net&quot; agent=&quot;Mozilla/5.0 (Macintosh; Intel Mac OS X 10_15_7) AppleWebKit/537.36 (KHTML, like Gecko) Chrome/137.0.0.0 Safari/537.36 Edg/137.0.0.0&quot; version=&quot;27.1.5&quot; pages=&quot;3&quot; scale=&quot;1&quot; border=&quot;0&quot;&gt;&#10;  &lt;diagram name=&quot;integration-img&quot; id=&quot;hS2gCD0KR1tBGuV8GCq8&quot;&gt;&#10;    &lt;mxGraphModel dx=&quot;1108&quot; dy=&quot;618&quot; grid=&quot;1&quot; gridSize=&quot;10&quot; guides=&quot;1&quot; tooltips=&quot;1&quot; connect=&quot;1&quot; arrows=&quot;1&quot; fold=&quot;1&quot; page=&quot;1&quot; pageScale=&quot;1&quot; pageWidth=&quot;827&quot; pageHeight=&quot;1169&quot; math=&quot;0&quot; shadow=&quot;0&quot;&gt;&#10;      &lt;root&gt;&#10;        &lt;mxCell id=&quot;0&quot; /&gt;&#10;        &lt;mxCell id=&quot;1&quot; parent=&quot;0&quot; /&gt;&#10;        &lt;mxCell id=&quot;SWcFB0jZRpMFO4eK7EId-1&quot; value=&quot;&quot; style=&quot;html=1;whiteSpace=wrap;shape=isoCube2;backgroundOutline=1;isoAngle=15;strokeColor=#7C8483;strokeWidth=2;sketch=1;curveFitting=1;jiggle=2;&quot; vertex=&quot;1&quot; parent=&quot;1&quot;&gt;&#10;          &lt;mxGeometry x=&quot;270&quot; y=&quot;390&quot; width=&quot;90&quot; height=&quot;100&quot; as=&quot;geometry&quot; /&gt;&#10;        &lt;/mxCell&gt;&#10;        &lt;mxCell id=&quot;SWcFB0jZRpMFO4eK7EId-3&quot; value=&quot;&quot; style=&quot;html=1;whiteSpace=wrap;shape=isoCube2;backgroundOutline=1;isoAngle=15;strokeColor=#71A2B6;strokeWidth=2;sketch=1;curveFitting=1;jiggle=2;&quot; vertex=&quot;1&quot; parent=&quot;1&quot;&gt;&#10;          &lt;mxGeometry x=&quot;333&quot; y=&quot;438.89&quot; width=&quot;18&quot; height=&quot;20&quot; as=&quot;geometry&quot; /&gt;&#10;        &lt;/mxCell&gt;&#10;        &lt;mxCell id=&quot;SWcFB0jZRpMFO4eK7EId-4&quot; value=&quot;&quot; style=&quot;html=1;whiteSpace=wrap;shape=isoCube2;backgroundOutline=1;isoAngle=15;strokeColor=#53F4FF;strokeWidth=2;sketch=1;curveFitting=1;jiggle=2;&quot; vertex=&quot;1&quot; parent=&quot;1&quot;&gt;&#10;          &lt;mxGeometry x=&quot;280&quot; y=&quot;430&quot; width=&quot;26&quot; height=&quot;28.89&quot; as=&quot;geometry&quot; /&gt;&#10;        &lt;/mxCell&gt;&#10;        &lt;mxCell id=&quot;SWcFB0jZRpMFO4eK7EId-5&quot; value=&quot;&quot; style=&quot;html=1;whiteSpace=wrap;shape=isoCube2;backgroundOutline=1;isoAngle=15;strokeColor=#982649;strokeWidth=2;sketch=1;curveFitting=1;jiggle=2;&quot; vertex=&quot;1&quot; parent=&quot;1&quot;&gt;&#10;          &lt;mxGeometry x=&quot;297&quot; y=&quot;380&quot; width=&quot;36&quot; height=&quot;40&quot; as=&quot;geometry&quot; /&gt;&#10;        &lt;/mxCell&gt;&#10;      &lt;/root&gt;&#10;    &lt;/mxGraphModel&gt;&#10;  &lt;/diagram&gt;&#10;  &lt;diagram id=&quot;IOI7_tfFBnW1Y3QOMzzJ&quot; name=&quot;single-tool&quot;&gt;&#10;    &lt;mxGraphModel dx=&quot;1206&quot; dy=&quot;672&quot; grid=&quot;1&quot; gridSize=&quot;10&quot; guides=&quot;1&quot; tooltips=&quot;1&quot; connect=&quot;1&quot; arrows=&quot;1&quot; fold=&quot;1&quot; page=&quot;1&quot; pageScale=&quot;1&quot; pageWidth=&quot;827&quot; pageHeight=&quot;1169&quot; math=&quot;0&quot; shadow=&quot;0&quot;&gt;&#10;      &lt;root&gt;&#10;        &lt;mxCell id=&quot;0&quot; /&gt;&#10;        &lt;mxCell id=&quot;1&quot; parent=&quot;0&quot; /&gt;&#10;        &lt;mxCell id=&quot;iX4E62Lxc4KdDLDYWgln-1&quot; value=&quot;&quot; style=&quot;html=1;whiteSpace=wrap;shape=isoCube2;backgroundOutline=1;isoAngle=15;strokeColor=#7C8483;strokeWidth=3;sketch=1;curveFitting=1;jiggle=2;&quot; vertex=&quot;1&quot; parent=&quot;1&quot;&gt;&#10;          &lt;mxGeometry x=&quot;293&quot; y=&quot;379&quot; width=&quot;90&quot; height=&quot;100&quot; as=&quot;geometry&quot; /&gt;&#10;        &lt;/mxCell&gt;&#10;        &lt;mxCell id=&quot;iX4E62Lxc4KdDLDYWgln-2&quot; value=&quot;&quot; style=&quot;shape=flexArrow;endArrow=classic;html=1;rounded=0;fillColor=#F9D9E1;strokeColor=#982649;shadow=0;sketch=1;curveFitting=1;jiggle=2;&quot; edge=&quot;1&quot; parent=&quot;1&quot;&gt;&#10;          &lt;mxGeometry width=&quot;50&quot; height=&quot;50&quot; relative=&quot;1&quot; as=&quot;geometry&quot;&gt;&#10;            &lt;mxPoint x=&quot;270&quot; y=&quot;480&quot; as=&quot;sourcePoint&quot; /&gt;&#10;            &lt;mxPoint x=&quot;320&quot; y=&quot;430&quot; as=&quot;targetPoint&quot; /&gt;&#10;          &lt;/mxGeometry&gt;&#10;        &lt;/mxCell&gt;&#10;        &lt;mxCell id=&quot;iX4E62Lxc4KdDLDYWgln-3&quot; value=&quot;&quot; style=&quot;shape=flexArrow;endArrow=classic;html=1;rounded=0;fillColor=#dae8fc;strokeColor=#60B2E5;strokeWidth=3;sketch=1;curveFitting=1;jiggle=2;&quot; edge=&quot;1&quot; parent=&quot;1&quot;&gt;&#10;          &lt;mxGeometry width=&quot;50&quot; height=&quot;50&quot; relative=&quot;1&quot; as=&quot;geometry&quot;&gt;&#10;            &lt;mxPoint x=&quot;337.71&quot; y=&quot;340&quot; as=&quot;sourcePoint&quot; /&gt;&#10;            &lt;mxPoint x=&quot;337.71&quot; y=&quot;410&quot; as=&quot;targetPoint&quot; /&gt;&#10;          &lt;/mxGeometry&gt;&#10;        &lt;/mxCell&gt;&#10;        &lt;mxCell id=&quot;iX4E62Lxc4KdDLDYWgln-4&quot; value=&quot;&quot; style=&quot;shape=flexArrow;endArrow=classic;html=1;rounded=0;fillColor=#dae8fc;strokeColor=#71A2B6;strokeWidth=3;sketch=1;curveFitting=1;jiggle=2;&quot; edge=&quot;1&quot; parent=&quot;1&quot;&gt;&#10;          &lt;mxGeometry width=&quot;50&quot; height=&quot;50&quot; relative=&quot;1&quot; as=&quot;geometry&quot;&gt;&#10;            &lt;mxPoint x=&quot;410&quot; y=&quot;480&quot; as=&quot;sourcePoint&quot; /&gt;&#10;            &lt;mxPoint x=&quot;350&quot; y=&quot;430&quot; as=&quot;targetPoint&quot; /&gt;&#10;          &lt;/mxGeometry&gt;&#10;        &lt;/mxCell&gt;&#10;      &lt;/root&gt;&#10;    &lt;/mxGraphModel&gt;&#10;  &lt;/diagram&gt;&#10;  &lt;diagram id=&quot;u-9jjRXno1pS1NvU1wpT&quot; name=&quot;tech-gnostic&quot;&gt;&#10;    &lt;mxGraphModel dx=&quot;976&quot; dy=&quot;544&quot; grid=&quot;1&quot; gridSize=&quot;10&quot; guides=&quot;1&quot; tooltips=&quot;1&quot; connect=&quot;1&quot; arrows=&quot;1&quot; fold=&quot;1&quot; page=&quot;1&quot; pageScale=&quot;1&quot; pageWidth=&quot;827&quot; pageHeight=&quot;1169&quot; math=&quot;0&quot; shadow=&quot;0&quot;&gt;&#10;      &lt;root&gt;&#10;        &lt;mxCell id=&quot;0&quot; /&gt;&#10;        &lt;mxCell id=&quot;1&quot; parent=&quot;0&quot; /&gt;&#10;        &lt;mxCell id=&quot;A6Fnrb8D3ymSiSgNN0lG-8&quot; value=&quot;&quot; style=&quot;whiteSpace=wrap;html=1;aspect=fixed;sketch=1;curveFitting=1;jiggle=2;strokeColor=#982649;strokeWidth=3;perimeterSpacing=0;rounded=1;&quot; vertex=&quot;1&quot; parent=&quot;1&quot;&gt;&#10;          &lt;mxGeometry x=&quot;310&quot; y=&quot;350&quot; width=&quot;80&quot; height=&quot;80&quot; as=&quot;geometry&quot; /&gt;&#10;        &lt;/mxCell&gt;&#10;        &lt;mxCell id=&quot;A6Fnrb8D3ymSiSgNN0lG-9&quot; value=&quot;&quot; style=&quot;ellipse;whiteSpace=wrap;html=1;aspect=fixed;strokeColor=#60B2E5;strokeWidth=6;dashed=1;dashPattern=8 8;sketch=1;curveFitting=1;jiggle=2;shadow=0;gradientColor=none;&quot; vertex=&quot;1&quot; parent=&quot;1&quot;&gt;&#10;          &lt;mxGeometry x=&quot;400&quot; y=&quot;300&quot; width=&quot;80&quot; height=&quot;80&quot; as=&quot;geometry&quot; /&gt;&#10;        &lt;/mxCell&gt;&#10;        &lt;mxCell id=&quot;A6Fnrb8D3ymSiSgNN0lG-10&quot; value=&quot;&quot; style=&quot;triangle;whiteSpace=wrap;html=1;rotation=50;strokeColor=#53F4FF;sketch=1;curveFitting=1;jiggle=2;strokeWidth=2;dashed=1;dashPattern=12 12;&quot; vertex=&quot;1&quot; parent=&quot;1&quot;&gt;&#10;          &lt;mxGeometry x=&quot;323.57&quot; y=&quot;272.34&quot; width=&quot;80&quot; height=&quot;80&quot; as=&quot;geometry&quot; /&gt;&#10;        &lt;/mxCell&gt;&#10;      &lt;/root&gt;&#10;    &lt;/mxGraphModel&gt;&#10;  &lt;/diagram&gt;&#10;&lt;/mxfile&gt;&#10;"><defs/><rect fill="#ffffff" width="100%" height="100%" x="0" y="0" style="fill: light-dark(#ffffff, var(--ge-dark-color, #121212));"/><g><g data-cell-id="0"><g data-cell-id="1"><g data-cell-id="SWcFB0jZRpMFO4eK7EId-1"><g><path d="M 46 10 L 91 31.61 L 91 88.39 L 46 110 L 1 88.39 L 1 31.61 Z" fill="none" stroke="none" pointer-events="all"/><path d="M 1 31.61 L 46 53.21 L 91 31.61 M 46 53.21 L 46 110" fill="none" stroke="none" pointer-events="all"/><path d="M 46 10 C 58.84 19.51 71.36 21.02 91 31.61 C 95.78 47.5 87.59 69.24 91 88.39 C 79.95 94.04 69.87 95.07 46 110 C 37.66 106.19 16.82 98.94 1 88.39 C 4.09 66.91 -0.69 49.2 1 31.61 C 12.88 24.18 32.22 20.76 46 10" fill="#ffffff" stroke="none" pointer-events="all" style="fill: light-dark(#ffffff, var(--ge-dark-color, #121212));"/><path d="M 46 10 C 62.68 15.93 81.5 28.78 91 31.61 M 46 10 C 58.07 14.76 71.55 20.98 91 31.61 M 91 31.61 C 93.09 53.44 94.06 75.63 91 88.39 M 91 31.61 C 92.26 49.91 92.88 64.62 91 88.39 M 91 88.39 C 77.12 90.43 71.04 96.49 46 110 M 91 88.39 C 77.99 93.72 67.11 100.48 46 110 M 46 110 C 34.99 102.86 17.91 93.37 1 88.39 M 46 110 C 28.77 102.23 14.97 94.62 1 88.39 M 1 88.39 C 2.73 71.22 3.8 56.5 1 31.61 M 1 88.39 C 1.77 71.64 0.86 51.59 1 31.61 M 1 31.61 C 15.22 23.32 31.04 15.84 46 10 M 1 31.61 C 17.01 23.3 34.55 14.64 46 10" fill="none" stroke="#7c8483" stroke-width="2" stroke-linejoin="round" stroke-linecap="round" stroke-miterlimit="10" pointer-events="all" style="stroke: light-dark(rgb(124, 132, 131), rgb(120, 127, 127));"/><path d="M 1 31.61 C 17.68 37.54 36.5 50.38 46 53.21 M 1 31.61 C 13.07 36.37 26.55 42.58 46 53.21 M 46 53.21 C 64.78 47.51 81.63 42.03 91 31.61 M 46 53.21 C 59.78 47.94 73.93 39.09 91 31.61 M 46 53.21 C 41.92 63.96 46.03 77.99 46 110 M 46 53.21 C 43.34 66.62 43.31 81.86 46 110" fill="none" stroke="#7c8483" stroke-width="2" stroke-linejoin="round" stroke-linecap="round" stroke-miterlimit="10" pointer-events="all" style="stroke: light-dark(rgb(124, 132, 131), rgb(120, 127, 127));"/></g></g><g data-cell-id="SWcFB0jZRpMFO4eK7EId-3"><g><path d="M 73 58.89 L 82 63.21 L 82 74.57 L 73 78.89 L 64 74.57 L 64 63.21 Z" fill="none" stroke="none" pointer-events="all"/><path d="M 64 63.21 L 73 67.53 L 82 63.21 M 73 67.53 L 73 78.89" fill="none" stroke="none" pointer-events="all"/><path d="M 73 58.89 C 77.72 58.85 80.7 60.58 82 63.21 C 80.25 69.2 80.57 69.51 82 74.57 C 80.13 73.98 78.58 76.34 73 78.89 C 70.89 75.58 69.04 74.69 64 74.57 C 63.29 69.72 63.69 70.5 64 63.21 C 69.21 64.26 67.77 57.55 73 58.89" fill="#ffffff" stroke="none" pointer-events="all" style="fill: light-dark(#ffffff, var(--ge-dark-color, #121212));"/><path d="M 73 58.89 C 78.02 61.3 80.1 61.73 82 63.21 M 73 58.89 C 75.22 59.84 76.8 61.31 82 63.21 M 82 63.21 C 82.67 67.16 80.63 67.88 82 74.57 M 82 63.21 C 83.05 66.24 83.17 69.53 82 74.57 M 82 74.57 C 79.85 77.2 74.72 78.29 73 78.89 M 82 74.57 C 78.64 76.26 75.77 78.2 73 78.89 M 73 78.89 C 70.21 77.97 68.23 75.48 64 74.57 M 73 78.89 C 71.06 77.79 68.18 76.4 64 74.57 M 64 74.57 C 64.17 70.29 62.09 71.81 64 63.21 M 64 74.57 C 63.92 71.16 63.56 66.3 64 63.21 M 64 63.21 C 68.96 61.77 69.71 61.79 73 58.89 M 64 63.21 C 66.52 61.55 69.56 60.66 73 58.89" fill="none" stroke="#71a2b6" stroke-width="2" stroke-linejoin="round" stroke-linecap="round" stroke-miterlimit="10" pointer-events="all" style="stroke: light-dark(rgb(113, 162, 182), rgb(71, 113, 130));"/><path d="M 64 63.21 C 69.02 65.62 71.1 66.05 73 67.53 M 64 63.21 C 66.22 64.16 67.8 65.63 73 67.53 M 73 67.53 C 75.6 67.67 75.81 65.12 82 63.21 M 73 67.53 C 75.9 66.76 78.26 66.06 82 63.21 M 73 67.53 C 74.03 72.87 71.77 76.36 73 78.89 M 73 67.53 C 72.47 71.36 72.51 75.65 73 78.89" fill="none" stroke="#71a2b6" stroke-width="2" stroke-linejoin="round" stroke-linecap="round" stroke-miterlimit="10" pointer-events="all" style="stroke: light-dark(rgb(113, 162, 182), rgb(71, 113, 130));"/></g></g><g data-cell-id="SWcFB0jZRpMFO4eK7EId-4"><g><path d="M 24 50 L 37 56.24 L 37 72.65 L 24 78.89 L 11 72.65 L 11 56.24 Z" fill="none" stroke="none" pointer-events="all"/><path d="M 11 56.24 L 24 62.48 L 37 56.24 M 24 62.48 L 24 78.89" fill="none" stroke="none" pointer-events="all"/><path d="M 24 50 C 29.13 49.43 26.63 56.49 37 56.24 C 32.52 63.67 36.58 70.18 37 72.65 C 34.32 74.23 28.19 76.07 24 78.89 C 17.14 74.78 11.22 76.91 11 72.65 C 7.99 68.63 10.81 66.05 11 56.24 C 11.96 52.4 15.72 50.36 24 50" fill="#ffffff" stroke="none" pointer-events="all" style="fill: light-dark(#ffffff, var(--ge-dark-color, #121212));"/><path d="M 24 50 C 29.38 52.19 30.69 53.1 37 56.24 M 24 50 C 27 51.97 32.49 53.42 37 56.24 M 37 56.24 C 37.12 59.52 38.87 65.52 37 72.65 M 37 56.24 C 36.65 59.83 38.29 63.81 37 72.65 M 37 72.65 C 33.5 72.11 29.44 75.61 24 78.89 M 37 72.65 C 33.32 75.08 27.23 76.53 24 78.89 M 24 78.89 C 21.61 76.69 17.68 74.83 11 72.65 M 24 78.89 C 20 77.53 19.58 75.59 11 72.65 M 11 72.65 C 14.35 68.2 12.68 65.49 11 56.24 M 11 72.65 C 12.33 68.93 11.92 65.06 11 56.24 M 11 56.24 C 13.17 52.18 14.3 50.93 24 50 M 11 56.24 C 13.08 53.98 18.46 53.43 24 50" fill="none" stroke="#53f4ff" stroke-width="2" stroke-linejoin="round" stroke-linecap="round" stroke-miterlimit="10" pointer-events="all" style="stroke: light-dark(rgb(83, 244, 255), rgb(0, 85, 94));"/><path d="M 11 56.24 C 16.38 58.43 17.69 59.34 24 62.48 M 11 56.24 C 14 58.21 19.49 59.66 24 62.48 M 24 62.48 C 27.76 59.98 32.66 59.91 37 56.24 M 24 62.48 C 26.98 61.05 31.37 59.88 37 56.24 M 24 62.48 C 24.46 64.85 24.44 71.72 24 78.89 M 24 62.48 C 25.04 68.91 23.49 73.96 24 78.89" fill="none" stroke="#53f4ff" stroke-width="2" stroke-linejoin="round" stroke-linecap="round" stroke-miterlimit="10" pointer-events="all" style="stroke: light-dark(rgb(83, 244, 255), rgb(0, 85, 94));"/></g></g><g data-cell-id="SWcFB0jZRpMFO4eK7EId-5"><g><path d="M 46 0 L 64 8.64 L 64 31.36 L 46 40 L 28 31.36 L 28 8.64 Z" fill="none" stroke="none" pointer-events="all"/><path d="M 28 8.64 L 46 17.29 L 64 8.64 M 46 17.29 L 46 40" fill="none" stroke="none" pointer-events="all"/><path d="M 46 0 C 54.38 1.25 56.27 7.86 64 8.64 C 66.19 17.09 64.33 22.11 64 31.36 C 60.79 35.92 58.11 36.28 46 40 C 34.84 36.98 36.9 35.2 28 31.36 C 23.05 17.89 29.22 9.25 28 8.64 C 35.02 6.36 40.72 1.23 46 0" fill="#ffffff" stroke="none" pointer-events="all" style="fill: light-dark(#ffffff, var(--ge-dark-color, #121212));"/><path d="M 46 0 C 51.19 0.53 58.65 2.19 64 8.64 M 46 0 C 53.86 3.56 57.91 4.63 64 8.64 M 64 8.64 C 63.94 18.48 63.79 24.63 64 31.36 M 64 8.64 C 62.06 12.6 61.86 17.08 64 31.36 M 64 31.36 C 58.62 32.61 57.63 32.12 46 40 M 64 31.36 C 60.48 33.7 56.95 36.11 46 40 M 46 40 C 40.92 37.48 37.61 39.03 28 31.36 M 46 40 C 38.83 36.7 31.87 32.38 28 31.36 M 28 31.36 C 27.05 27.09 26.64 16.81 28 8.64 M 28 31.36 C 27.43 23.42 27.07 17.68 28 8.64 M 28 8.64 C 35.32 6.55 40.56 1.31 46 0 M 28 8.64 C 32.73 5.7 37.54 5.95 46 0" fill="none" stroke="#982649" stroke-width="2" stroke-linejoin="round" stroke-linecap="round" stroke-miterlimit="10" pointer-events="all" style="stroke: light-dark(rgb(152, 38, 73), rgb(255, 158, 188));"/><path d="M 28 8.64 C 33.19 9.17 40.65 10.84 46 17.29 M 28 8.64 C 35.86 12.21 39.91 13.28 46 17.29 M 46 17.29 C 50.88 18.06 56.01 15 64 8.64 M 46 17.29 C 48.11 14.87 51.54 13.02 64 8.64 M 46 17.29 C 45.24 22.41 49.18 25.75 46 40 M 46 17.29 C 46.3 22.78 46.46 28.08 46 40" fill="none" stroke="#982649" stroke-width="2" stroke-linejoin="round" stroke-linecap="round" stroke-miterlimit="10" pointer-events="all" style="stroke: light-dark(rgb(152, 38, 73), rgb(255, 158, 188));"/></g></g></g></g></g></svg>